M48
;DRILL file {KiCad 4.0.7} date 04/07/18 19:34:38
;FORMAT={2:4/ absolute / inch / suppress leading zeros}
FMAT,2
INCH,TZ
T1C0.052
T2C0.098
%
G90
G05
M72
T1
X44848Y-43126
X44848Y-44126
X44848Y-45126
X44848Y-46126
X45848Y-43126
X45848Y-44126
X45848Y-45126
X45848Y-46126
X47301Y-30949
X47301Y-31949
X47301Y-32949
X47301Y-33949
X47348Y-43126
X47348Y-44126
X47348Y-45126
X47348Y-46126
X48301Y-30949
X48301Y-31949
X48301Y-32949
X48301Y-33949
X48348Y-43126
X48348Y-44126
X48348Y-45126
X48348Y-46126
X49801Y-30949
X49801Y-31949
X49801Y-32949
X49801Y-33949
X49848Y-43126
X49848Y-44126
X49848Y-45126
X49848Y-46126
X50801Y-30949
X50801Y-31949
X50801Y-32949
X50801Y-33949
X50848Y-43126
X50848Y-44126
X50848Y-45126
X50848Y-46126
X52301Y-30949
X52301Y-31949
X52301Y-32949
X52301Y-33949
X52348Y-43126
X52348Y-44126
X52348Y-45126
X52348Y-46126
X53301Y-30949
X53301Y-31949
X53301Y-32949
X53301Y-33949
X53348Y-43126
X53348Y-44126
X53348Y-45126
X53348Y-46126
X54801Y-30949
X54801Y-31949
X54801Y-32949
X54801Y-33949
X55801Y-30949
X55801Y-31949
X55801Y-32949
X55801Y-33949
T2
X42348Y-45496
X44801Y-33319
X55848Y-45496
X58301Y-33319
T0
M30
