G04 #@! TF.FileFunction,Soldermask,Top*
%FSLAX46Y46*%
G04 Gerber Fmt 4.6, Leading zero omitted, Abs format (unit mm)*
G04 Created by KiCad (PCBNEW 4.0.7) date 04/10/18 01:59:35*
%MOMM*%
%LPD*%
G01*
G04 APERTURE LIST*
%ADD10C,0.100000*%
%ADD11R,0.550000X1.600000*%
%ADD12R,1.600000X0.550000*%
%ADD13R,0.800000X0.750000*%
%ADD14R,0.500000X0.900000*%
%ADD15R,0.750000X0.800000*%
%ADD16R,0.600000X1.550000*%
%ADD17R,0.900000X0.500000*%
%ADD18R,1.700000X1.700000*%
%ADD19O,1.700000X1.700000*%
%ADD20R,1.300000X4.500000*%
%ADD21R,0.650000X0.700000*%
%ADD22R,0.355600X0.965200*%
%ADD23R,0.965200X0.355600*%
%ADD24R,3.200400X3.200400*%
%ADD25R,1.060000X0.650000*%
%ADD26R,1.400000X1.200000*%
%ADD27R,1.050000X1.300000*%
G04 APERTURE END LIST*
D10*
D11*
X104492000Y-123473000D03*
X103692000Y-123473000D03*
X102892000Y-123473000D03*
X102092000Y-123473000D03*
X101292000Y-123473000D03*
X100492000Y-123473000D03*
X99692000Y-123473000D03*
X98892000Y-123473000D03*
D12*
X97442000Y-124923000D03*
X97442000Y-125723000D03*
X97442000Y-126523000D03*
X97442000Y-127323000D03*
X97442000Y-128123000D03*
X97442000Y-128923000D03*
X97442000Y-129723000D03*
X97442000Y-130523000D03*
D11*
X98892000Y-131973000D03*
X99692000Y-131973000D03*
X100492000Y-131973000D03*
X101292000Y-131973000D03*
X102092000Y-131973000D03*
X102892000Y-131973000D03*
X103692000Y-131973000D03*
X104492000Y-131973000D03*
D12*
X105942000Y-130523000D03*
X105942000Y-129723000D03*
X105942000Y-128923000D03*
X105942000Y-128123000D03*
X105942000Y-127323000D03*
X105942000Y-126523000D03*
X105942000Y-125723000D03*
X105942000Y-124923000D03*
D13*
X104020932Y-89869346D03*
X102520932Y-89869346D03*
D14*
X99170932Y-98632346D03*
X97670932Y-98632346D03*
D15*
X99067932Y-95457346D03*
X99067932Y-96957346D03*
X100972932Y-89869346D03*
X100972932Y-91369346D03*
X97797932Y-95457346D03*
X97797932Y-96957346D03*
D16*
X100972932Y-98825346D03*
X102242932Y-98825346D03*
X103512932Y-98825346D03*
X104782932Y-98825346D03*
X104782932Y-93425346D03*
X103512932Y-93425346D03*
X102242932Y-93425346D03*
X100972932Y-93425346D03*
D17*
X105481432Y-91242346D03*
X105481432Y-89742346D03*
D18*
X108084932Y-92917346D03*
D19*
X108084932Y-95457346D03*
X108084932Y-97997346D03*
D13*
X104020932Y-91139346D03*
X102520932Y-91139346D03*
D15*
X95020000Y-120453000D03*
X95020000Y-118953000D03*
D20*
X109730000Y-136350000D03*
X122730000Y-136350000D03*
D15*
X124129800Y-127457200D03*
X124129800Y-125957200D03*
D13*
X127889000Y-124460000D03*
X126389000Y-124460000D03*
X124968000Y-124485400D03*
X123468000Y-124485400D03*
D15*
X114427000Y-118376000D03*
X114427000Y-119876000D03*
X116078000Y-119888000D03*
X116078000Y-118388000D03*
X118237000Y-118376000D03*
X118237000Y-119876000D03*
X119634000Y-118388000D03*
X119634000Y-119888000D03*
X121158000Y-119876000D03*
X121158000Y-118376000D03*
X122682000Y-120928000D03*
X122682000Y-122428000D03*
D13*
X125833000Y-122809000D03*
X124333000Y-122809000D03*
D15*
X115189000Y-126492000D03*
X115189000Y-124992000D03*
X128270000Y-127484000D03*
X128270000Y-125984000D03*
X115189000Y-130683000D03*
X115189000Y-129183000D03*
X118540000Y-133380000D03*
X118540000Y-131880000D03*
X120900000Y-129080000D03*
X120900000Y-127580000D03*
X119930000Y-132090000D03*
X119930000Y-130590000D03*
D13*
X113538000Y-122047000D03*
X112038000Y-122047000D03*
D15*
X102450000Y-119423000D03*
X102450000Y-120923000D03*
X100890000Y-119433000D03*
X100890000Y-120933000D03*
X99322000Y-135503000D03*
X99322000Y-134003000D03*
X101442000Y-135483000D03*
X101442000Y-133983000D03*
D13*
X98770000Y-117553000D03*
X97270000Y-117553000D03*
D15*
X108204000Y-119737000D03*
X108204000Y-118237000D03*
D18*
X115697000Y-140589000D03*
D19*
X113157000Y-140589000D03*
X110617000Y-140589000D03*
D18*
X106172000Y-138430000D03*
D19*
X106172000Y-140970000D03*
X103632000Y-138430000D03*
X103632000Y-140970000D03*
X101092000Y-138430000D03*
X101092000Y-140970000D03*
D17*
X122520000Y-129120000D03*
X122520000Y-127620000D03*
D14*
X127000000Y-126111000D03*
X125500000Y-126111000D03*
D17*
X115316000Y-123190000D03*
X115316000Y-121690000D03*
D14*
X112419000Y-123952000D03*
X113919000Y-123952000D03*
D17*
X108420000Y-125813000D03*
X108420000Y-127313000D03*
D21*
X110500000Y-130283000D03*
X107550000Y-130283000D03*
X107550000Y-128383000D03*
X110500000Y-128383000D03*
D22*
X117836001Y-126268000D03*
X118486002Y-126268000D03*
X119136001Y-126268000D03*
X119786000Y-126268000D03*
X120436001Y-126268000D03*
D23*
X121510901Y-125193100D03*
X121510901Y-124543099D03*
X121510901Y-123893100D03*
X121510901Y-123243101D03*
X121510901Y-122593100D03*
D22*
X120436001Y-121518200D03*
X119786000Y-121518200D03*
X119136001Y-121518200D03*
X118486002Y-121518200D03*
X117836001Y-121518200D03*
D23*
X116761101Y-122593100D03*
X116761101Y-123243101D03*
X116761101Y-123893100D03*
X116761101Y-124543099D03*
X116761101Y-125193100D03*
D24*
X119136001Y-123893100D03*
D25*
X110236000Y-117983000D03*
X110236000Y-118933000D03*
X110236000Y-119883000D03*
X112436000Y-119883000D03*
X112436000Y-117983000D03*
D26*
X98720000Y-118923000D03*
X96520000Y-118923000D03*
X96520000Y-120523000D03*
X98720000Y-120523000D03*
D27*
X116677000Y-130436000D03*
X116677000Y-128136000D03*
X118527000Y-130436000D03*
X118527000Y-128136000D03*
D18*
X125095000Y-140716000D03*
D19*
X122555000Y-140716000D03*
X120015000Y-140716000D03*
M02*
