M48
;DRILL file {KiCad 4.0.7} date 04/10/18 01:59:28
;FORMAT={2:4/ absolute / inch / suppress leading zeros}
FMAT,2
INCH,TZ
T1C0.016
T2C0.039
%
G90
G05
M72
T1
X37800Y-51050
X38750Y-51400
X38950Y-52400
X39550Y-49600
X39800Y-54050
X40300Y-53900
X40640Y-47010
X41000Y-52500
X41198Y-51502
X41253Y-39832
X41450Y-55100
X41750Y-51750
X41800Y-54050
X42041Y-51061
X42250Y-46500
X42343Y-52393
X43250Y-51500
X44500Y-46500
X45041Y-49209
X45330Y-51730
X45550Y-54550
X45638Y-49505
X46260Y-49603
X47537Y-51413
X48000Y-46600
X48000Y-55000
X48610Y-50225
X50600Y-50600
T2
X39800Y-54500
X39800Y-55500
X40800Y-54500
X40800Y-55500
X41800Y-54500
X41800Y-55500
X42553Y-36582
X42553Y-37582
X42553Y-38582
X43550Y-55350
X44550Y-55350
X45550Y-55350
X47250Y-55400
X48250Y-55400
X49250Y-55400
T0
M30
