G04 #@! TF.FileFunction,Copper,L1,Top,Signal*
%FSLAX46Y46*%
G04 Gerber Fmt 4.6, Leading zero omitted, Abs format (unit mm)*
G04 Created by KiCad (PCBNEW 4.0.7) date 04/10/18 01:59:35*
%MOMM*%
%LPD*%
G01*
G04 APERTURE LIST*
%ADD10C,0.100000*%
%ADD11R,0.550000X1.600000*%
%ADD12R,1.600000X0.550000*%
%ADD13R,0.800000X0.750000*%
%ADD14R,0.500000X0.900000*%
%ADD15R,0.750000X0.800000*%
%ADD16R,0.600000X1.550000*%
%ADD17R,0.900000X0.500000*%
%ADD18R,1.700000X1.700000*%
%ADD19O,1.700000X1.700000*%
%ADD20R,1.300000X4.500000*%
%ADD21R,0.650000X0.700000*%
%ADD22R,0.355600X0.965200*%
%ADD23R,0.965200X0.355600*%
%ADD24R,3.200400X3.200400*%
%ADD25R,1.060000X0.650000*%
%ADD26R,1.400000X1.200000*%
%ADD27R,1.050000X1.300000*%
%ADD28C,0.600000*%
%ADD29C,0.250000*%
%ADD30C,0.254000*%
G04 APERTURE END LIST*
D10*
D11*
X104492000Y-123473000D03*
X103692000Y-123473000D03*
X102892000Y-123473000D03*
X102092000Y-123473000D03*
X101292000Y-123473000D03*
X100492000Y-123473000D03*
X99692000Y-123473000D03*
X98892000Y-123473000D03*
D12*
X97442000Y-124923000D03*
X97442000Y-125723000D03*
X97442000Y-126523000D03*
X97442000Y-127323000D03*
X97442000Y-128123000D03*
X97442000Y-128923000D03*
X97442000Y-129723000D03*
X97442000Y-130523000D03*
D11*
X98892000Y-131973000D03*
X99692000Y-131973000D03*
X100492000Y-131973000D03*
X101292000Y-131973000D03*
X102092000Y-131973000D03*
X102892000Y-131973000D03*
X103692000Y-131973000D03*
X104492000Y-131973000D03*
D12*
X105942000Y-130523000D03*
X105942000Y-129723000D03*
X105942000Y-128923000D03*
X105942000Y-128123000D03*
X105942000Y-127323000D03*
X105942000Y-126523000D03*
X105942000Y-125723000D03*
X105942000Y-124923000D03*
D13*
X104020932Y-89869346D03*
X102520932Y-89869346D03*
D14*
X99170932Y-98632346D03*
X97670932Y-98632346D03*
D15*
X99067932Y-95457346D03*
X99067932Y-96957346D03*
X100972932Y-89869346D03*
X100972932Y-91369346D03*
X97797932Y-95457346D03*
X97797932Y-96957346D03*
D16*
X100972932Y-98825346D03*
X102242932Y-98825346D03*
X103512932Y-98825346D03*
X104782932Y-98825346D03*
X104782932Y-93425346D03*
X103512932Y-93425346D03*
X102242932Y-93425346D03*
X100972932Y-93425346D03*
D17*
X105481432Y-91242346D03*
X105481432Y-89742346D03*
D18*
X108084932Y-92917346D03*
D19*
X108084932Y-95457346D03*
X108084932Y-97997346D03*
D13*
X104020932Y-91139346D03*
X102520932Y-91139346D03*
D15*
X95020000Y-120453000D03*
X95020000Y-118953000D03*
D20*
X109730000Y-136350000D03*
X122730000Y-136350000D03*
D15*
X124129800Y-127457200D03*
X124129800Y-125957200D03*
D13*
X127889000Y-124460000D03*
X126389000Y-124460000D03*
X124968000Y-124485400D03*
X123468000Y-124485400D03*
D15*
X114427000Y-118376000D03*
X114427000Y-119876000D03*
X116078000Y-119888000D03*
X116078000Y-118388000D03*
X118237000Y-118376000D03*
X118237000Y-119876000D03*
X119634000Y-118388000D03*
X119634000Y-119888000D03*
X121158000Y-119876000D03*
X121158000Y-118376000D03*
X122682000Y-120928000D03*
X122682000Y-122428000D03*
D13*
X125833000Y-122809000D03*
X124333000Y-122809000D03*
D15*
X115189000Y-126492000D03*
X115189000Y-124992000D03*
X128270000Y-127484000D03*
X128270000Y-125984000D03*
X115189000Y-130683000D03*
X115189000Y-129183000D03*
X118540000Y-133380000D03*
X118540000Y-131880000D03*
X120900000Y-129080000D03*
X120900000Y-127580000D03*
X119930000Y-132090000D03*
X119930000Y-130590000D03*
D13*
X113538000Y-122047000D03*
X112038000Y-122047000D03*
D15*
X102450000Y-119423000D03*
X102450000Y-120923000D03*
X100890000Y-119433000D03*
X100890000Y-120933000D03*
X99322000Y-135503000D03*
X99322000Y-134003000D03*
X101442000Y-135483000D03*
X101442000Y-133983000D03*
D13*
X98770000Y-117553000D03*
X97270000Y-117553000D03*
D15*
X108204000Y-119737000D03*
X108204000Y-118237000D03*
D18*
X115697000Y-140589000D03*
D19*
X113157000Y-140589000D03*
X110617000Y-140589000D03*
D18*
X106172000Y-138430000D03*
D19*
X106172000Y-140970000D03*
X103632000Y-138430000D03*
X103632000Y-140970000D03*
X101092000Y-138430000D03*
X101092000Y-140970000D03*
D17*
X122520000Y-129120000D03*
X122520000Y-127620000D03*
D14*
X127000000Y-126111000D03*
X125500000Y-126111000D03*
D17*
X115316000Y-123190000D03*
X115316000Y-121690000D03*
D14*
X112419000Y-123952000D03*
X113919000Y-123952000D03*
D17*
X108420000Y-125813000D03*
X108420000Y-127313000D03*
D21*
X110500000Y-130283000D03*
X107550000Y-130283000D03*
X107550000Y-128383000D03*
X110500000Y-128383000D03*
D22*
X117836001Y-126268000D03*
X118486002Y-126268000D03*
X119136001Y-126268000D03*
X119786000Y-126268000D03*
X120436001Y-126268000D03*
D23*
X121510901Y-125193100D03*
X121510901Y-124543099D03*
X121510901Y-123893100D03*
X121510901Y-123243101D03*
X121510901Y-122593100D03*
D22*
X120436001Y-121518200D03*
X119786000Y-121518200D03*
X119136001Y-121518200D03*
X118486002Y-121518200D03*
X117836001Y-121518200D03*
D23*
X116761101Y-122593100D03*
X116761101Y-123243101D03*
X116761101Y-123893100D03*
X116761101Y-124543099D03*
X116761101Y-125193100D03*
D24*
X119136001Y-123893100D03*
D25*
X110236000Y-117983000D03*
X110236000Y-118933000D03*
X110236000Y-119883000D03*
X112436000Y-119883000D03*
X112436000Y-117983000D03*
D26*
X98720000Y-118923000D03*
X96520000Y-118923000D03*
X96520000Y-120523000D03*
X98720000Y-120523000D03*
D27*
X116677000Y-130436000D03*
X116677000Y-128136000D03*
X118527000Y-130436000D03*
X118527000Y-128136000D03*
D18*
X125095000Y-140716000D03*
D19*
X122555000Y-140716000D03*
X120015000Y-140716000D03*
D28*
X113030000Y-118110000D03*
X114403000Y-124992000D03*
X123470002Y-127571500D03*
X120743000Y-130590000D03*
X107550000Y-133077000D03*
X102362000Y-136906000D03*
X109855000Y-130810000D03*
X128524000Y-128524000D03*
X121920000Y-118364000D03*
X103225600Y-119405400D03*
X115138200Y-131394200D03*
X100457000Y-125984000D03*
X107315000Y-118110000D03*
X106784640Y-129696180D03*
X121920000Y-139700000D03*
X104140000Y-133350000D03*
X115697000Y-138557000D03*
X98425000Y-130556000D03*
X106172000Y-137287000D03*
X98933000Y-133096000D03*
X105283000Y-139954000D03*
X96012000Y-129667000D03*
X101092000Y-137287000D03*
X115921075Y-125741999D03*
X104642265Y-130814340D03*
X106045000Y-131445000D03*
X117500067Y-125992024D03*
X104782932Y-101172346D03*
D29*
X122520000Y-129120000D02*
X122520000Y-136140000D01*
X122520000Y-136140000D02*
X122730000Y-136350000D01*
X113030000Y-118110000D02*
X112563000Y-118110000D01*
X112563000Y-118110000D02*
X112436000Y-117983000D01*
X115189000Y-124992000D02*
X114403000Y-124992000D01*
X123470002Y-127571500D02*
X124015500Y-127571500D01*
X124015500Y-127571500D02*
X124129800Y-127457200D01*
X119930000Y-130590000D02*
X120743000Y-130590000D01*
X127889000Y-124460000D02*
X127889000Y-125603000D01*
X127889000Y-125603000D02*
X128270000Y-125984000D01*
X116761101Y-124543099D02*
X115637901Y-124543099D01*
X115637901Y-124543099D02*
X115189000Y-124992000D01*
X119786000Y-121518200D02*
X119786000Y-120785600D01*
X119786000Y-120785600D02*
X119958599Y-120613001D01*
X119958599Y-120613001D02*
X120445999Y-120613001D01*
X120445999Y-120613001D02*
X121158000Y-119901000D01*
X121158000Y-119901000D02*
X121158000Y-119876000D01*
X128270000Y-125984000D02*
X127127000Y-125984000D01*
X127127000Y-125984000D02*
X127000000Y-126111000D01*
X119786000Y-126268000D02*
X119786000Y-126606000D01*
X119786000Y-126606000D02*
X119930000Y-126750000D01*
X119930000Y-126750000D02*
X119930000Y-129940000D01*
X119930000Y-129940000D02*
X119930000Y-130590000D01*
X124968000Y-124485400D02*
X124968000Y-125579000D01*
X124968000Y-125579000D02*
X125500000Y-126111000D01*
X124129800Y-125957200D02*
X125346200Y-125957200D01*
X125346200Y-125957200D02*
X125500000Y-126111000D01*
X121510901Y-125193100D02*
X123390700Y-125193100D01*
X123390700Y-125193100D02*
X124129800Y-125932200D01*
X124129800Y-125932200D02*
X124129800Y-125957200D01*
X121510901Y-123893100D02*
X122243501Y-123893100D01*
X122243501Y-123893100D02*
X122351202Y-123785399D01*
X122351202Y-123785399D02*
X125689399Y-123785399D01*
X125689399Y-123785399D02*
X126364000Y-124460000D01*
X126364000Y-124460000D02*
X126389000Y-124460000D01*
X121510901Y-124543099D02*
X123410301Y-124543099D01*
X123410301Y-124543099D02*
X123468000Y-124485400D01*
X107550000Y-130283000D02*
X107550000Y-133077000D01*
X101600000Y-136271000D02*
X102235000Y-136906000D01*
X102235000Y-136906000D02*
X102362000Y-136906000D01*
X101580000Y-136271000D02*
X101600000Y-136271000D01*
X101442000Y-135483000D02*
X101442000Y-136133000D01*
X101442000Y-136133000D02*
X101580000Y-136271000D01*
X109855000Y-130810000D02*
X109973000Y-130810000D01*
X109973000Y-130810000D02*
X110500000Y-130283000D01*
X128270000Y-127484000D02*
X128270000Y-128270000D01*
X128270000Y-128270000D02*
X128524000Y-128524000D01*
X125833000Y-122809000D02*
X127598002Y-122809000D01*
X127598002Y-122809000D02*
X128970001Y-124180999D01*
X128970001Y-126758999D02*
X128270000Y-127459000D01*
X128970001Y-124180999D02*
X128970001Y-126758999D01*
X128270000Y-127459000D02*
X128270000Y-127484000D01*
X121158000Y-118376000D02*
X121908000Y-118376000D01*
X121908000Y-118376000D02*
X121920000Y-118364000D01*
X119634000Y-118388000D02*
X121146000Y-118388000D01*
X121146000Y-118388000D02*
X121158000Y-118376000D01*
X118237000Y-118376000D02*
X119622000Y-118376000D01*
X119622000Y-118376000D02*
X119634000Y-118388000D01*
X114427000Y-118376000D02*
X114427000Y-117726000D01*
X116898999Y-117662999D02*
X117612000Y-118376000D01*
X114427000Y-117726000D02*
X114490001Y-117662999D01*
X114490001Y-117662999D02*
X116898999Y-117662999D01*
X117612000Y-118376000D02*
X118237000Y-118376000D01*
X110236000Y-118933000D02*
X113870000Y-118933000D01*
X113870000Y-118933000D02*
X114427000Y-118376000D01*
X110236000Y-118933000D02*
X111016000Y-118933000D01*
X111016000Y-118933000D02*
X111091001Y-119008001D01*
X111091001Y-119008001D02*
X111091001Y-120468001D01*
X111091001Y-120468001D02*
X111026001Y-120533001D01*
X108204000Y-119762000D02*
X108204000Y-119737000D01*
X111026001Y-120533001D02*
X108975001Y-120533001D01*
X108975001Y-120533001D02*
X108204000Y-119762000D01*
X110500000Y-130283000D02*
X111423000Y-130283000D01*
X111423000Y-130283000D02*
X115189000Y-126517000D01*
X115189000Y-126517000D02*
X115189000Y-126492000D01*
X110500000Y-130283000D02*
X114789000Y-130283000D01*
X114789000Y-130283000D02*
X115189000Y-130683000D01*
X107550000Y-130283000D02*
X107550000Y-130883000D01*
X107550000Y-130883000D02*
X102950000Y-135483000D01*
X102950000Y-135483000D02*
X102067000Y-135483000D01*
X102067000Y-135483000D02*
X101442000Y-135483000D01*
X102450000Y-119423000D02*
X103208000Y-119423000D01*
X103208000Y-119423000D02*
X103225600Y-119405400D01*
X97270000Y-117553000D02*
X97270000Y-116928000D01*
X97270000Y-116928000D02*
X97782609Y-116415391D01*
X97782609Y-116415391D02*
X98992393Y-116415391D01*
X98992393Y-116415391D02*
X100890000Y-118312998D01*
X100890000Y-118312998D02*
X100890000Y-118783000D01*
X100890000Y-118783000D02*
X100890000Y-119433000D01*
X96520000Y-118923000D02*
X96520000Y-118303000D01*
X96520000Y-118303000D02*
X97270000Y-117553000D01*
X96520000Y-118923000D02*
X96805002Y-118923000D01*
X96805002Y-118923000D02*
X98405002Y-120523000D01*
X98405002Y-120523000D02*
X98720000Y-120523000D01*
X95020000Y-118953000D02*
X96490000Y-118953000D01*
X96490000Y-118953000D02*
X96520000Y-118923000D01*
X101292000Y-123473000D02*
X101292000Y-122423000D01*
X101292000Y-122423000D02*
X101337800Y-122377200D01*
X101337800Y-122377200D02*
X101641990Y-122377200D01*
X100890000Y-119433000D02*
X101515000Y-119433000D01*
X101515000Y-119433000D02*
X101641990Y-119559990D01*
X101641990Y-119559990D02*
X101641990Y-122377200D01*
X102450000Y-119423000D02*
X102450000Y-119448000D01*
X102450000Y-119448000D02*
X103225600Y-120223600D01*
X103225600Y-120223600D02*
X103225600Y-122089400D01*
X103225600Y-122089400D02*
X102892000Y-122423000D01*
X102892000Y-122423000D02*
X102892000Y-123473000D01*
X100890000Y-119433000D02*
X102440000Y-119433000D01*
X102440000Y-119433000D02*
X102450000Y-119423000D01*
X101442000Y-135483000D02*
X101442000Y-135458000D01*
X101442000Y-135458000D02*
X102291999Y-134608001D01*
X102092000Y-133023000D02*
X102092000Y-131973000D01*
X102291999Y-134608001D02*
X102291999Y-133222999D01*
X102291999Y-133222999D02*
X102092000Y-133023000D01*
X101442000Y-135483000D02*
X99342000Y-135483000D01*
X99342000Y-135483000D02*
X99322000Y-135503000D01*
X115189000Y-130683000D02*
X115189000Y-131343400D01*
X115189000Y-131343400D02*
X115138200Y-131394200D01*
X116677000Y-130436000D02*
X116677000Y-130111000D01*
X116677000Y-130111000D02*
X118527000Y-128261000D01*
X118527000Y-128261000D02*
X118527000Y-128136000D01*
X118540000Y-133380000D02*
X118640000Y-133380000D01*
X118640000Y-133380000D02*
X119930000Y-132090000D01*
X116677000Y-130436000D02*
X116677000Y-132142000D01*
X116677000Y-132142000D02*
X117915000Y-133380000D01*
X117915000Y-133380000D02*
X118540000Y-133380000D01*
X116677000Y-130436000D02*
X115436000Y-130436000D01*
X115436000Y-130436000D02*
X115189000Y-130683000D01*
X112038000Y-122047000D02*
X112038000Y-123571000D01*
X112038000Y-123571000D02*
X112419000Y-123952000D01*
X114427000Y-119876000D02*
X114427000Y-119901000D01*
X114427000Y-119901000D02*
X112281000Y-122047000D01*
X112281000Y-122047000D02*
X112038000Y-122047000D01*
X115316000Y-123190000D02*
X115116000Y-123190000D01*
X115116000Y-123190000D02*
X114427000Y-122501000D01*
X114427000Y-122501000D02*
X114427000Y-120526000D01*
X114427000Y-120526000D02*
X114427000Y-119876000D01*
X112419000Y-123752000D02*
X112419000Y-123952000D01*
X116761101Y-123243101D02*
X115369101Y-123243101D01*
X115369101Y-123243101D02*
X115316000Y-123190000D01*
X115316000Y-121690000D02*
X115316000Y-120650000D01*
X115316000Y-120650000D02*
X116078000Y-119888000D01*
X116761101Y-122593100D02*
X116219100Y-122593100D01*
X116219100Y-122593100D02*
X115316000Y-121690000D01*
X117836001Y-121518200D02*
X117836001Y-120785600D01*
X117836001Y-120785600D02*
X116778001Y-119727600D01*
X116778001Y-119727600D02*
X116778001Y-119113001D01*
X116778001Y-119113001D02*
X116078000Y-118413000D01*
X116078000Y-118413000D02*
X116078000Y-118388000D01*
X118486002Y-121518200D02*
X118486002Y-120125002D01*
X118486002Y-120125002D02*
X118237000Y-119876000D01*
X119136001Y-121518200D02*
X119136001Y-120385999D01*
X119136001Y-120385999D02*
X119634000Y-119888000D01*
X120436001Y-121518200D02*
X122091800Y-121518200D01*
X122091800Y-121518200D02*
X122682000Y-120928000D01*
X121510901Y-122593100D02*
X122516900Y-122593100D01*
X122516900Y-122593100D02*
X122682000Y-122428000D01*
X121510901Y-123243101D02*
X123898899Y-123243101D01*
X123898899Y-123243101D02*
X124333000Y-122809000D01*
X116677000Y-128136000D02*
X116236000Y-128136000D01*
X116236000Y-128136000D02*
X115189000Y-129183000D01*
X116489000Y-127948000D02*
X116677000Y-128136000D01*
X118486002Y-126268000D02*
X118486002Y-126863401D01*
X118486002Y-126863401D02*
X118188404Y-127160999D01*
X116677000Y-128011000D02*
X116677000Y-128136000D01*
X118188404Y-127160999D02*
X117527001Y-127160999D01*
X117527001Y-127160999D02*
X116677000Y-128011000D01*
X118527000Y-130436000D02*
X118527000Y-131867000D01*
X118527000Y-131867000D02*
X118540000Y-131880000D01*
X119136001Y-126268000D02*
X119136001Y-127000600D01*
X119136001Y-127000600D02*
X119377001Y-127241600D01*
X119377001Y-127241600D02*
X119377001Y-129460999D01*
X118527000Y-130311000D02*
X118527000Y-130436000D01*
X119377001Y-129460999D02*
X118527000Y-130311000D01*
X120900000Y-129080000D02*
X121060000Y-129080000D01*
X121060000Y-129080000D02*
X122520000Y-127620000D01*
X120436001Y-126268000D02*
X120436001Y-127116001D01*
X120436001Y-127116001D02*
X120900000Y-127580000D01*
X113538000Y-122047000D02*
X113538000Y-123571000D01*
X113538000Y-123571000D02*
X113919000Y-123952000D01*
X113919000Y-123952000D02*
X116702201Y-123952000D01*
X116702201Y-123952000D02*
X116761101Y-123893100D01*
X100492000Y-124714000D02*
X100492000Y-124933000D01*
X100492000Y-123473000D02*
X100492000Y-124714000D01*
X100492000Y-125949000D02*
X100457000Y-125984000D01*
X100492000Y-124714000D02*
X100492000Y-125949000D01*
X100691999Y-130322999D02*
X101292000Y-130923000D01*
X102600600Y-121073600D02*
X102450000Y-120923000D01*
X100492000Y-124933000D02*
X101682000Y-124933000D01*
X101682000Y-124933000D02*
X102092000Y-124523000D01*
X102092000Y-124523000D02*
X102092000Y-123473000D01*
X100691999Y-122386591D02*
X100528409Y-122386591D01*
X100528409Y-122386591D02*
X100492000Y-122423000D01*
X100492000Y-122423000D02*
X100492000Y-123473000D01*
X100890000Y-120933000D02*
X100890000Y-122188590D01*
X100890000Y-122188590D02*
X100691999Y-122386591D01*
X101292000Y-130923000D02*
X101292000Y-131973000D01*
X100890000Y-120933000D02*
X100890000Y-121583000D01*
X113157000Y-140589000D02*
X114808000Y-142240000D01*
X114808000Y-142240000D02*
X124671000Y-142240000D01*
X124671000Y-142240000D02*
X125095000Y-141816000D01*
X125095000Y-141816000D02*
X125095000Y-140716000D01*
X113157000Y-140589000D02*
X111600999Y-142145001D01*
X102267001Y-142145001D02*
X101941999Y-141819999D01*
X111600999Y-142145001D02*
X102267001Y-142145001D01*
X101941999Y-141819999D02*
X101092000Y-140970000D01*
X101092000Y-140970000D02*
X97916857Y-137794857D01*
X97916857Y-137794857D02*
X97916857Y-134783143D01*
X97916857Y-134783143D02*
X98697000Y-134003000D01*
X98697000Y-134003000D02*
X99322000Y-134003000D01*
X107315000Y-118110000D02*
X108077000Y-118110000D01*
X108077000Y-118110000D02*
X108204000Y-118237000D01*
X109380999Y-119807999D02*
X109380999Y-118237000D01*
X109380999Y-118237000D02*
X109380999Y-118058001D01*
X108204000Y-118237000D02*
X109380999Y-118237000D01*
X110236000Y-119883000D02*
X109456000Y-119883000D01*
X109456000Y-119883000D02*
X109380999Y-119807999D01*
X109380999Y-118058001D02*
X109456000Y-117983000D01*
X110236000Y-117983000D02*
X109456000Y-117983000D01*
X102092000Y-123473000D02*
X102092000Y-121281000D01*
X102092000Y-121281000D02*
X102450000Y-120923000D01*
X101292000Y-131973000D02*
X101292000Y-133833000D01*
X101292000Y-133833000D02*
X101442000Y-133983000D01*
X99322000Y-134003000D02*
X99692000Y-133633000D01*
X99692000Y-133633000D02*
X99692000Y-131973000D01*
X98720000Y-118923000D02*
X98720000Y-117603000D01*
X98720000Y-117603000D02*
X98770000Y-117553000D01*
X99692000Y-123473000D02*
X99692000Y-122423000D01*
X99692000Y-122423000D02*
X99745001Y-122369999D01*
X99745001Y-122369999D02*
X99745001Y-118998001D01*
X99745001Y-118998001D02*
X99670000Y-118923000D01*
X99670000Y-118923000D02*
X98720000Y-118923000D01*
X96520000Y-120523000D02*
X95090000Y-120523000D01*
X95090000Y-120523000D02*
X95020000Y-120453000D01*
X98892000Y-123473000D02*
X98367000Y-123473000D01*
X98367000Y-123473000D02*
X96520000Y-121626000D01*
X96520000Y-121626000D02*
X96520000Y-121373000D01*
X96520000Y-121373000D02*
X96520000Y-120523000D01*
X106784640Y-129696180D02*
X105968820Y-129696180D01*
X105968820Y-129696180D02*
X105942000Y-129723000D01*
X121920000Y-140081000D02*
X121920000Y-139700000D01*
X122555000Y-140716000D02*
X121920000Y-140081000D01*
X99170932Y-98632346D02*
X100779932Y-98632346D01*
X100779932Y-98632346D02*
X100972932Y-98825346D01*
X99170932Y-98632346D02*
X99170932Y-97060346D01*
X99170932Y-97060346D02*
X99067932Y-96957346D01*
X104020932Y-91139346D02*
X105378432Y-91139346D01*
X105378432Y-91139346D02*
X105481432Y-91242346D01*
X104782932Y-93425346D02*
X104782932Y-91876346D01*
X104782932Y-91876346D02*
X104045932Y-91139346D01*
X104045932Y-91139346D02*
X104020932Y-91139346D01*
X102242932Y-93425346D02*
X102242932Y-92950346D01*
X102242932Y-92950346D02*
X100972932Y-91680346D01*
X100972932Y-91680346D02*
X100972932Y-91369346D01*
X104140000Y-133350000D02*
X103692000Y-132902000D01*
X103692000Y-132902000D02*
X103692000Y-131973000D01*
X115697000Y-140589000D02*
X115697000Y-138557000D01*
X98425000Y-130556000D02*
X97475000Y-130556000D01*
X97475000Y-130556000D02*
X97442000Y-130523000D01*
X106172000Y-138430000D02*
X106172000Y-137287000D01*
X98933000Y-133096000D02*
X98933000Y-132014000D01*
X98933000Y-132014000D02*
X98892000Y-131973000D01*
X106172000Y-140970000D02*
X106172000Y-140843000D01*
X106172000Y-140843000D02*
X105283000Y-139954000D01*
X103632000Y-138430000D02*
X108420000Y-133642000D01*
X108420000Y-133642000D02*
X108420000Y-131063000D01*
X110500000Y-128983000D02*
X110500000Y-128383000D01*
X108420000Y-131063000D02*
X110500000Y-128983000D01*
X107550000Y-128383000D02*
X108125000Y-128383000D01*
X108125000Y-128383000D02*
X110500000Y-128383000D01*
X107550000Y-128383000D02*
X107550000Y-128183000D01*
X107550000Y-128183000D02*
X108420000Y-127313000D01*
X108420000Y-127313000D02*
X105952000Y-127313000D01*
X105952000Y-127313000D02*
X105942000Y-127323000D01*
X96012000Y-129667000D02*
X97386000Y-129667000D01*
X97386000Y-129667000D02*
X97442000Y-129723000D01*
X101092000Y-138430000D02*
X101092000Y-137287000D01*
X115921075Y-125741999D02*
X116212202Y-125741999D01*
X116212202Y-125741999D02*
X116761101Y-125193100D01*
X104492000Y-131973000D02*
X104492000Y-130964605D01*
X104492000Y-130964605D02*
X104642265Y-130814340D01*
X117500067Y-125992024D02*
X117560025Y-125992024D01*
X117560025Y-125992024D02*
X117836001Y-126268000D01*
X105942000Y-130523000D02*
X105942000Y-131342000D01*
X105942000Y-131342000D02*
X106045000Y-131445000D01*
X100972932Y-89869346D02*
X100347932Y-89869346D01*
X100347932Y-89869346D02*
X100272931Y-89944347D01*
X100272931Y-89944347D02*
X100272931Y-92250345D01*
X100272931Y-92250345D02*
X100972932Y-92950346D01*
X100972932Y-92950346D02*
X100972932Y-93425346D01*
X102242932Y-98825346D02*
X102242932Y-98007346D01*
X102242932Y-98007346D02*
X99692932Y-95457346D01*
X99692932Y-95457346D02*
X99067932Y-95457346D01*
X102242932Y-98825346D02*
X102242932Y-99300346D01*
X97797932Y-95482346D02*
X97797932Y-95457346D01*
X106433932Y-97997346D02*
X105605932Y-98825346D01*
X105605932Y-98825346D02*
X104782932Y-98825346D01*
X108084932Y-97997346D02*
X106433932Y-97997346D01*
X100972932Y-89869346D02*
X102520932Y-89869346D01*
X102520932Y-91139346D02*
X102520932Y-89869346D01*
X102520932Y-91402346D02*
X102520932Y-91139346D01*
X103512932Y-93425346D02*
X103512932Y-92106346D01*
X103512932Y-92106346D02*
X102545932Y-91139346D01*
X102545932Y-91139346D02*
X102520932Y-91139346D01*
X99067932Y-95457346D02*
X97797932Y-95457346D01*
X100972932Y-93425346D02*
X100422932Y-93425346D01*
X100422932Y-93425346D02*
X99067932Y-94780346D01*
X99067932Y-94780346D02*
X99067932Y-94807346D01*
X99067932Y-94807346D02*
X99067932Y-95457346D01*
X104782932Y-100537346D02*
X104782932Y-101172346D01*
X104782932Y-100537346D02*
X104782932Y-98825346D01*
X103512932Y-100537346D02*
X104782932Y-100537346D01*
X103512932Y-100537346D02*
X103512932Y-98825346D01*
X102242932Y-100537346D02*
X103512932Y-100537346D01*
X102242932Y-98825346D02*
X102242932Y-100537346D01*
X97797932Y-96957346D02*
X97797932Y-98505346D01*
X97797932Y-98505346D02*
X97670932Y-98632346D01*
X108084932Y-95457346D02*
X106256433Y-93628847D01*
X106256433Y-93628847D02*
X106256433Y-90317347D01*
X106256433Y-90317347D02*
X105681432Y-89742346D01*
X105681432Y-89742346D02*
X105481432Y-89742346D01*
X105481432Y-89742346D02*
X104147932Y-89742346D01*
X104147932Y-89742346D02*
X104020932Y-89869346D01*
D30*
G36*
X94645000Y-121500440D02*
X95308292Y-121500440D01*
X95355910Y-121574441D01*
X95568110Y-121719431D01*
X95787419Y-121763842D01*
X95817852Y-121916839D01*
X95982599Y-122163401D01*
X97819758Y-124000560D01*
X96642000Y-124000560D01*
X96406683Y-124044838D01*
X96190559Y-124183910D01*
X96045569Y-124396110D01*
X95994560Y-124648000D01*
X95994560Y-125198000D01*
X96018944Y-125327589D01*
X95994560Y-125448000D01*
X95994560Y-125998000D01*
X96018944Y-126127589D01*
X95994560Y-126248000D01*
X95994560Y-126798000D01*
X96018944Y-126927589D01*
X95994560Y-127048000D01*
X95994560Y-127598000D01*
X96018944Y-127727589D01*
X95994560Y-127848000D01*
X95994560Y-128398000D01*
X96018944Y-128527589D01*
X95994560Y-128648000D01*
X95994560Y-128731984D01*
X95826833Y-128731838D01*
X95483057Y-128873883D01*
X95219808Y-129136673D01*
X95077162Y-129480201D01*
X95076838Y-129852167D01*
X95218883Y-130195943D01*
X95481673Y-130459192D01*
X95825201Y-130601838D01*
X95994560Y-130601986D01*
X95994560Y-130798000D01*
X96038838Y-131033317D01*
X96177910Y-131249441D01*
X96390110Y-131394431D01*
X96642000Y-131445440D01*
X97969560Y-131445440D01*
X97969560Y-132773000D01*
X97998148Y-132924934D01*
X97997838Y-133281167D01*
X98139883Y-133624943D01*
X98402673Y-133888192D01*
X98746201Y-134030838D01*
X99118167Y-134031162D01*
X99461943Y-133889117D01*
X99475083Y-133876000D01*
X100173250Y-133876000D01*
X100332000Y-133717250D01*
X100332000Y-133476691D01*
X100308700Y-133420440D01*
X100447016Y-133420440D01*
X100432000Y-133456691D01*
X100432000Y-133697250D01*
X100590750Y-133856000D01*
X101315000Y-133856000D01*
X101315000Y-133836000D01*
X101531999Y-133836000D01*
X101531999Y-134130000D01*
X101315000Y-134130000D01*
X101315000Y-134110000D01*
X100590750Y-134110000D01*
X100432000Y-134268750D01*
X100432000Y-134509309D01*
X100520514Y-134723000D01*
X100251770Y-134723000D01*
X100332000Y-134529309D01*
X100332000Y-134288750D01*
X100173250Y-134130000D01*
X99449000Y-134130000D01*
X99449000Y-134150000D01*
X99195000Y-134150000D01*
X99195000Y-134130000D01*
X98470750Y-134130000D01*
X98312000Y-134288750D01*
X98312000Y-134529309D01*
X98408673Y-134762698D01*
X98410043Y-134764068D01*
X98350569Y-134851110D01*
X98299560Y-135103000D01*
X98299560Y-135903000D01*
X98343838Y-136138317D01*
X98482910Y-136354441D01*
X98695110Y-136499431D01*
X98947000Y-136550440D01*
X99697000Y-136550440D01*
X99932317Y-136506162D01*
X100148441Y-136367090D01*
X100233228Y-136243000D01*
X100544069Y-136243000D01*
X100602910Y-136334441D01*
X100733307Y-136423537D01*
X100563057Y-136493883D01*
X100299808Y-136756673D01*
X100157162Y-137100201D01*
X100157011Y-137273969D01*
X100041946Y-137350853D01*
X99720039Y-137832622D01*
X99607000Y-138400907D01*
X99607000Y-138459093D01*
X99720039Y-139027378D01*
X100041946Y-139509147D01*
X100325101Y-139698345D01*
X100325076Y-139698355D01*
X99896817Y-140088642D01*
X99650514Y-140613108D01*
X99771181Y-140843000D01*
X100965000Y-140843000D01*
X100965000Y-140823000D01*
X101219000Y-140823000D01*
X101219000Y-140843000D01*
X101239000Y-140843000D01*
X101239000Y-141097000D01*
X101219000Y-141097000D01*
X101219000Y-142290155D01*
X101448890Y-142411476D01*
X101858924Y-142241645D01*
X102287183Y-141851358D01*
X102354298Y-141708447D01*
X102581946Y-142049147D01*
X103063715Y-142371054D01*
X103632000Y-142484093D01*
X104200285Y-142371054D01*
X104682054Y-142049147D01*
X104902000Y-141719974D01*
X105121946Y-142049147D01*
X105603715Y-142371054D01*
X106172000Y-142484093D01*
X106740285Y-142371054D01*
X107222054Y-142049147D01*
X107543961Y-141567378D01*
X107657000Y-140999093D01*
X107657000Y-140940907D01*
X107543961Y-140372622D01*
X107222054Y-139890853D01*
X107220821Y-139890029D01*
X107257317Y-139883162D01*
X107473441Y-139744090D01*
X107618431Y-139531890D01*
X107669440Y-139280000D01*
X107669440Y-137580000D01*
X107625162Y-137344683D01*
X107486090Y-137128559D01*
X107273890Y-136983569D01*
X107038610Y-136935924D01*
X106965117Y-136758057D01*
X106702327Y-136494808D01*
X106659696Y-136477106D01*
X108432560Y-134704242D01*
X108432560Y-138600000D01*
X108476838Y-138835317D01*
X108615910Y-139051441D01*
X108828110Y-139196431D01*
X109080000Y-139247440D01*
X109959676Y-139247440D01*
X109566946Y-139509853D01*
X109245039Y-139991622D01*
X109132000Y-140559907D01*
X109132000Y-140618093D01*
X109245039Y-141186378D01*
X109566946Y-141668147D01*
X110048715Y-141990054D01*
X110444506Y-142068782D01*
X110398585Y-145742434D01*
X96968467Y-145742434D01*
X95953253Y-145540496D01*
X95149794Y-145003640D01*
X94612938Y-144200179D01*
X94411000Y-143184967D01*
X94411000Y-143125434D01*
X94711050Y-143125434D01*
X94887417Y-144012092D01*
X95389669Y-144763765D01*
X96141342Y-145266017D01*
X97028000Y-145442384D01*
X97914658Y-145266017D01*
X98666331Y-144763765D01*
X99168583Y-144012092D01*
X99344950Y-143125434D01*
X99168583Y-142238776D01*
X98666331Y-141487103D01*
X98426559Y-141326892D01*
X99650514Y-141326892D01*
X99896817Y-141851358D01*
X100325076Y-142241645D01*
X100735110Y-142411476D01*
X100965000Y-142290155D01*
X100965000Y-141097000D01*
X99771181Y-141097000D01*
X99650514Y-141326892D01*
X98426559Y-141326892D01*
X97914658Y-140984851D01*
X97028000Y-140808484D01*
X96141342Y-140984851D01*
X95389669Y-141487103D01*
X94887417Y-142238776D01*
X94711050Y-143125434D01*
X94411000Y-143125434D01*
X94411000Y-121453054D01*
X94645000Y-121500440D01*
X94645000Y-121500440D01*
G37*
X94645000Y-121500440D02*
X95308292Y-121500440D01*
X95355910Y-121574441D01*
X95568110Y-121719431D01*
X95787419Y-121763842D01*
X95817852Y-121916839D01*
X95982599Y-122163401D01*
X97819758Y-124000560D01*
X96642000Y-124000560D01*
X96406683Y-124044838D01*
X96190559Y-124183910D01*
X96045569Y-124396110D01*
X95994560Y-124648000D01*
X95994560Y-125198000D01*
X96018944Y-125327589D01*
X95994560Y-125448000D01*
X95994560Y-125998000D01*
X96018944Y-126127589D01*
X95994560Y-126248000D01*
X95994560Y-126798000D01*
X96018944Y-126927589D01*
X95994560Y-127048000D01*
X95994560Y-127598000D01*
X96018944Y-127727589D01*
X95994560Y-127848000D01*
X95994560Y-128398000D01*
X96018944Y-128527589D01*
X95994560Y-128648000D01*
X95994560Y-128731984D01*
X95826833Y-128731838D01*
X95483057Y-128873883D01*
X95219808Y-129136673D01*
X95077162Y-129480201D01*
X95076838Y-129852167D01*
X95218883Y-130195943D01*
X95481673Y-130459192D01*
X95825201Y-130601838D01*
X95994560Y-130601986D01*
X95994560Y-130798000D01*
X96038838Y-131033317D01*
X96177910Y-131249441D01*
X96390110Y-131394431D01*
X96642000Y-131445440D01*
X97969560Y-131445440D01*
X97969560Y-132773000D01*
X97998148Y-132924934D01*
X97997838Y-133281167D01*
X98139883Y-133624943D01*
X98402673Y-133888192D01*
X98746201Y-134030838D01*
X99118167Y-134031162D01*
X99461943Y-133889117D01*
X99475083Y-133876000D01*
X100173250Y-133876000D01*
X100332000Y-133717250D01*
X100332000Y-133476691D01*
X100308700Y-133420440D01*
X100447016Y-133420440D01*
X100432000Y-133456691D01*
X100432000Y-133697250D01*
X100590750Y-133856000D01*
X101315000Y-133856000D01*
X101315000Y-133836000D01*
X101531999Y-133836000D01*
X101531999Y-134130000D01*
X101315000Y-134130000D01*
X101315000Y-134110000D01*
X100590750Y-134110000D01*
X100432000Y-134268750D01*
X100432000Y-134509309D01*
X100520514Y-134723000D01*
X100251770Y-134723000D01*
X100332000Y-134529309D01*
X100332000Y-134288750D01*
X100173250Y-134130000D01*
X99449000Y-134130000D01*
X99449000Y-134150000D01*
X99195000Y-134150000D01*
X99195000Y-134130000D01*
X98470750Y-134130000D01*
X98312000Y-134288750D01*
X98312000Y-134529309D01*
X98408673Y-134762698D01*
X98410043Y-134764068D01*
X98350569Y-134851110D01*
X98299560Y-135103000D01*
X98299560Y-135903000D01*
X98343838Y-136138317D01*
X98482910Y-136354441D01*
X98695110Y-136499431D01*
X98947000Y-136550440D01*
X99697000Y-136550440D01*
X99932317Y-136506162D01*
X100148441Y-136367090D01*
X100233228Y-136243000D01*
X100544069Y-136243000D01*
X100602910Y-136334441D01*
X100733307Y-136423537D01*
X100563057Y-136493883D01*
X100299808Y-136756673D01*
X100157162Y-137100201D01*
X100157011Y-137273969D01*
X100041946Y-137350853D01*
X99720039Y-137832622D01*
X99607000Y-138400907D01*
X99607000Y-138459093D01*
X99720039Y-139027378D01*
X100041946Y-139509147D01*
X100325101Y-139698345D01*
X100325076Y-139698355D01*
X99896817Y-140088642D01*
X99650514Y-140613108D01*
X99771181Y-140843000D01*
X100965000Y-140843000D01*
X100965000Y-140823000D01*
X101219000Y-140823000D01*
X101219000Y-140843000D01*
X101239000Y-140843000D01*
X101239000Y-141097000D01*
X101219000Y-141097000D01*
X101219000Y-142290155D01*
X101448890Y-142411476D01*
X101858924Y-142241645D01*
X102287183Y-141851358D01*
X102354298Y-141708447D01*
X102581946Y-142049147D01*
X103063715Y-142371054D01*
X103632000Y-142484093D01*
X104200285Y-142371054D01*
X104682054Y-142049147D01*
X104902000Y-141719974D01*
X105121946Y-142049147D01*
X105603715Y-142371054D01*
X106172000Y-142484093D01*
X106740285Y-142371054D01*
X107222054Y-142049147D01*
X107543961Y-141567378D01*
X107657000Y-140999093D01*
X107657000Y-140940907D01*
X107543961Y-140372622D01*
X107222054Y-139890853D01*
X107220821Y-139890029D01*
X107257317Y-139883162D01*
X107473441Y-139744090D01*
X107618431Y-139531890D01*
X107669440Y-139280000D01*
X107669440Y-137580000D01*
X107625162Y-137344683D01*
X107486090Y-137128559D01*
X107273890Y-136983569D01*
X107038610Y-136935924D01*
X106965117Y-136758057D01*
X106702327Y-136494808D01*
X106659696Y-136477106D01*
X108432560Y-134704242D01*
X108432560Y-138600000D01*
X108476838Y-138835317D01*
X108615910Y-139051441D01*
X108828110Y-139196431D01*
X109080000Y-139247440D01*
X109959676Y-139247440D01*
X109566946Y-139509853D01*
X109245039Y-139991622D01*
X109132000Y-140559907D01*
X109132000Y-140618093D01*
X109245039Y-141186378D01*
X109566946Y-141668147D01*
X110048715Y-141990054D01*
X110444506Y-142068782D01*
X110398585Y-145742434D01*
X96968467Y-145742434D01*
X95953253Y-145540496D01*
X95149794Y-145003640D01*
X94612938Y-144200179D01*
X94411000Y-143184967D01*
X94411000Y-143125434D01*
X94711050Y-143125434D01*
X94887417Y-144012092D01*
X95389669Y-144763765D01*
X96141342Y-145266017D01*
X97028000Y-145442384D01*
X97914658Y-145266017D01*
X98666331Y-144763765D01*
X99168583Y-144012092D01*
X99344950Y-143125434D01*
X99168583Y-142238776D01*
X98666331Y-141487103D01*
X98426559Y-141326892D01*
X99650514Y-141326892D01*
X99896817Y-141851358D01*
X100325076Y-142241645D01*
X100735110Y-142411476D01*
X100965000Y-142290155D01*
X100965000Y-141097000D01*
X99771181Y-141097000D01*
X99650514Y-141326892D01*
X98426559Y-141326892D01*
X97914658Y-140984851D01*
X97028000Y-140808484D01*
X96141342Y-140984851D01*
X95389669Y-141487103D01*
X94887417Y-142238776D01*
X94711050Y-143125434D01*
X94411000Y-143125434D01*
X94411000Y-121453054D01*
X94645000Y-121500440D01*
G36*
X102152910Y-124724441D02*
X102283245Y-124813495D01*
X102377750Y-124908000D01*
X102493310Y-124908000D01*
X102513753Y-124899532D01*
X102617000Y-124920440D01*
X103167000Y-124920440D01*
X103296589Y-124896056D01*
X103417000Y-124920440D01*
X103967000Y-124920440D01*
X104096589Y-124896056D01*
X104217000Y-124920440D01*
X104494560Y-124920440D01*
X104494560Y-125198000D01*
X104518944Y-125327589D01*
X104494560Y-125448000D01*
X104494560Y-125998000D01*
X104518944Y-126127589D01*
X104494560Y-126248000D01*
X104494560Y-126798000D01*
X104518944Y-126927589D01*
X104494560Y-127048000D01*
X104494560Y-127598000D01*
X104518944Y-127727589D01*
X104494560Y-127848000D01*
X104494560Y-128398000D01*
X104518944Y-128527589D01*
X104494560Y-128648000D01*
X104494560Y-129198000D01*
X104518944Y-129327589D01*
X104494560Y-129448000D01*
X104494560Y-129879211D01*
X104457098Y-129879178D01*
X104113322Y-130021223D01*
X103850073Y-130284013D01*
X103749773Y-130525560D01*
X103417000Y-130525560D01*
X103287411Y-130549944D01*
X103167000Y-130525560D01*
X102617000Y-130525560D01*
X102487411Y-130549944D01*
X102367000Y-130525560D01*
X101817000Y-130525560D01*
X101711295Y-130545450D01*
X101693310Y-130538000D01*
X101577750Y-130538000D01*
X101481349Y-130634401D01*
X101365559Y-130708910D01*
X101292116Y-130816397D01*
X101231090Y-130721559D01*
X101100755Y-130632505D01*
X101006250Y-130538000D01*
X100890690Y-130538000D01*
X100870247Y-130546468D01*
X100767000Y-130525560D01*
X100217000Y-130525560D01*
X100111295Y-130545450D01*
X100093310Y-130538000D01*
X99977750Y-130538000D01*
X99881349Y-130634401D01*
X99765559Y-130708910D01*
X99692116Y-130816397D01*
X99631090Y-130721559D01*
X99500755Y-130632505D01*
X99406250Y-130538000D01*
X99360016Y-130538000D01*
X99360162Y-130370833D01*
X99218117Y-130027057D01*
X98955327Y-129763808D01*
X98889440Y-129736449D01*
X98889440Y-129448000D01*
X98865056Y-129318411D01*
X98889440Y-129198000D01*
X98889440Y-128648000D01*
X98865056Y-128518411D01*
X98889440Y-128398000D01*
X98889440Y-127848000D01*
X98865056Y-127718411D01*
X98889440Y-127598000D01*
X98889440Y-127048000D01*
X98865056Y-126918411D01*
X98889440Y-126798000D01*
X98889440Y-126248000D01*
X98865056Y-126118411D01*
X98889440Y-125998000D01*
X98889440Y-125448000D01*
X98865056Y-125318411D01*
X98889440Y-125198000D01*
X98889440Y-124920440D01*
X99167000Y-124920440D01*
X99296589Y-124896056D01*
X99417000Y-124920440D01*
X99967000Y-124920440D01*
X100072705Y-124900550D01*
X100090690Y-124908000D01*
X100206250Y-124908000D01*
X100302651Y-124811599D01*
X100418441Y-124737090D01*
X100491884Y-124629603D01*
X100552910Y-124724441D01*
X100683245Y-124813495D01*
X100777750Y-124908000D01*
X100893310Y-124908000D01*
X100913753Y-124899532D01*
X101017000Y-124920440D01*
X101567000Y-124920440D01*
X101672705Y-124900550D01*
X101690690Y-124908000D01*
X101806250Y-124908000D01*
X101902651Y-124811599D01*
X102018441Y-124737090D01*
X102091884Y-124629603D01*
X102152910Y-124724441D01*
X102152910Y-124724441D01*
G37*
X102152910Y-124724441D02*
X102283245Y-124813495D01*
X102377750Y-124908000D01*
X102493310Y-124908000D01*
X102513753Y-124899532D01*
X102617000Y-124920440D01*
X103167000Y-124920440D01*
X103296589Y-124896056D01*
X103417000Y-124920440D01*
X103967000Y-124920440D01*
X104096589Y-124896056D01*
X104217000Y-124920440D01*
X104494560Y-124920440D01*
X104494560Y-125198000D01*
X104518944Y-125327589D01*
X104494560Y-125448000D01*
X104494560Y-125998000D01*
X104518944Y-126127589D01*
X104494560Y-126248000D01*
X104494560Y-126798000D01*
X104518944Y-126927589D01*
X104494560Y-127048000D01*
X104494560Y-127598000D01*
X104518944Y-127727589D01*
X104494560Y-127848000D01*
X104494560Y-128398000D01*
X104518944Y-128527589D01*
X104494560Y-128648000D01*
X104494560Y-129198000D01*
X104518944Y-129327589D01*
X104494560Y-129448000D01*
X104494560Y-129879211D01*
X104457098Y-129879178D01*
X104113322Y-130021223D01*
X103850073Y-130284013D01*
X103749773Y-130525560D01*
X103417000Y-130525560D01*
X103287411Y-130549944D01*
X103167000Y-130525560D01*
X102617000Y-130525560D01*
X102487411Y-130549944D01*
X102367000Y-130525560D01*
X101817000Y-130525560D01*
X101711295Y-130545450D01*
X101693310Y-130538000D01*
X101577750Y-130538000D01*
X101481349Y-130634401D01*
X101365559Y-130708910D01*
X101292116Y-130816397D01*
X101231090Y-130721559D01*
X101100755Y-130632505D01*
X101006250Y-130538000D01*
X100890690Y-130538000D01*
X100870247Y-130546468D01*
X100767000Y-130525560D01*
X100217000Y-130525560D01*
X100111295Y-130545450D01*
X100093310Y-130538000D01*
X99977750Y-130538000D01*
X99881349Y-130634401D01*
X99765559Y-130708910D01*
X99692116Y-130816397D01*
X99631090Y-130721559D01*
X99500755Y-130632505D01*
X99406250Y-130538000D01*
X99360016Y-130538000D01*
X99360162Y-130370833D01*
X99218117Y-130027057D01*
X98955327Y-129763808D01*
X98889440Y-129736449D01*
X98889440Y-129448000D01*
X98865056Y-129318411D01*
X98889440Y-129198000D01*
X98889440Y-128648000D01*
X98865056Y-128518411D01*
X98889440Y-128398000D01*
X98889440Y-127848000D01*
X98865056Y-127718411D01*
X98889440Y-127598000D01*
X98889440Y-127048000D01*
X98865056Y-126918411D01*
X98889440Y-126798000D01*
X98889440Y-126248000D01*
X98865056Y-126118411D01*
X98889440Y-125998000D01*
X98889440Y-125448000D01*
X98865056Y-125318411D01*
X98889440Y-125198000D01*
X98889440Y-124920440D01*
X99167000Y-124920440D01*
X99296589Y-124896056D01*
X99417000Y-124920440D01*
X99967000Y-124920440D01*
X100072705Y-124900550D01*
X100090690Y-124908000D01*
X100206250Y-124908000D01*
X100302651Y-124811599D01*
X100418441Y-124737090D01*
X100491884Y-124629603D01*
X100552910Y-124724441D01*
X100683245Y-124813495D01*
X100777750Y-124908000D01*
X100893310Y-124908000D01*
X100913753Y-124899532D01*
X101017000Y-124920440D01*
X101567000Y-124920440D01*
X101672705Y-124900550D01*
X101690690Y-124908000D01*
X101806250Y-124908000D01*
X101902651Y-124811599D01*
X102018441Y-124737090D01*
X102091884Y-124629603D01*
X102152910Y-124724441D01*
G36*
X110757578Y-117023000D02*
X110521750Y-117023000D01*
X110363000Y-117181750D01*
X110363000Y-117856000D01*
X110383000Y-117856000D01*
X110383000Y-117960560D01*
X110089000Y-117960560D01*
X110089000Y-117856000D01*
X110109000Y-117856000D01*
X110109000Y-117181750D01*
X109950250Y-117023000D01*
X109579691Y-117023000D01*
X109346302Y-117119673D01*
X109167673Y-117298301D01*
X109100499Y-117460474D01*
X108938699Y-117298673D01*
X108705310Y-117202000D01*
X108489750Y-117202000D01*
X108331000Y-117360750D01*
X108331000Y-118110000D01*
X108351000Y-118110000D01*
X108351000Y-118364000D01*
X108331000Y-118364000D01*
X108331000Y-118384000D01*
X108077000Y-118384000D01*
X108077000Y-118364000D01*
X107352750Y-118364000D01*
X107194000Y-118522750D01*
X107194000Y-118763309D01*
X107290673Y-118996698D01*
X107292043Y-118998068D01*
X107232569Y-119085110D01*
X107181560Y-119337000D01*
X107181560Y-120137000D01*
X107225838Y-120372317D01*
X107364910Y-120588441D01*
X107577110Y-120733431D01*
X107829000Y-120784440D01*
X108151638Y-120784440D01*
X108437600Y-121070402D01*
X108684162Y-121235149D01*
X108975001Y-121293001D01*
X110704203Y-121293001D01*
X110628046Y-127385560D01*
X110175000Y-127385560D01*
X109939683Y-127429838D01*
X109723559Y-127568910D01*
X109686601Y-127623000D01*
X109505290Y-127623000D01*
X109517440Y-127563000D01*
X109517440Y-127063000D01*
X109473162Y-126827683D01*
X109334090Y-126611559D01*
X109265994Y-126565031D01*
X109408327Y-126422698D01*
X109505000Y-126189309D01*
X109505000Y-126096750D01*
X109346250Y-125938000D01*
X108547000Y-125938000D01*
X108547000Y-125960000D01*
X108293000Y-125960000D01*
X108293000Y-125938000D01*
X108273000Y-125938000D01*
X108273000Y-125688000D01*
X108293000Y-125688000D01*
X108293000Y-125086750D01*
X108547000Y-125086750D01*
X108547000Y-125688000D01*
X109346250Y-125688000D01*
X109505000Y-125529250D01*
X109505000Y-125436691D01*
X109408327Y-125203302D01*
X109229699Y-125024673D01*
X108996310Y-124928000D01*
X108705750Y-124928000D01*
X108547000Y-125086750D01*
X108293000Y-125086750D01*
X108134250Y-124928000D01*
X107843690Y-124928000D01*
X107610301Y-125024673D01*
X107431673Y-125203302D01*
X107370971Y-125349848D01*
X107365056Y-125318411D01*
X107389440Y-125198000D01*
X107389440Y-124648000D01*
X107345162Y-124412683D01*
X107206090Y-124196559D01*
X106993890Y-124051569D01*
X106742000Y-124000560D01*
X105414440Y-124000560D01*
X105414440Y-122673000D01*
X105370162Y-122437683D01*
X105231090Y-122221559D01*
X105018890Y-122076569D01*
X104767000Y-122025560D01*
X104217000Y-122025560D01*
X104087411Y-122049944D01*
X103985600Y-122029327D01*
X103985600Y-120223600D01*
X103943158Y-120010231D01*
X104017792Y-119935727D01*
X104160438Y-119592199D01*
X104160762Y-119220233D01*
X104018717Y-118876457D01*
X103755927Y-118613208D01*
X103412399Y-118470562D01*
X103140930Y-118470326D01*
X103076890Y-118426569D01*
X102825000Y-118375560D01*
X102075000Y-118375560D01*
X101839683Y-118419838D01*
X101660836Y-118534923D01*
X101650000Y-118527519D01*
X101650000Y-118312998D01*
X101592148Y-118022159D01*
X101427401Y-117775597D01*
X101362495Y-117710691D01*
X107194000Y-117710691D01*
X107194000Y-117951250D01*
X107352750Y-118110000D01*
X108077000Y-118110000D01*
X108077000Y-117360750D01*
X107918250Y-117202000D01*
X107702690Y-117202000D01*
X107469301Y-117298673D01*
X107290673Y-117477302D01*
X107194000Y-117710691D01*
X101362495Y-117710691D01*
X99529794Y-115877990D01*
X99283232Y-115713243D01*
X98992393Y-115655391D01*
X97782609Y-115655391D01*
X97491770Y-115713243D01*
X97245208Y-115877990D01*
X96732599Y-116390599D01*
X96590496Y-116603271D01*
X96418559Y-116713910D01*
X96273569Y-116926110D01*
X96222560Y-117178000D01*
X96222560Y-117525638D01*
X96072638Y-117675560D01*
X95820000Y-117675560D01*
X95584683Y-117719838D01*
X95368559Y-117858910D01*
X95336684Y-117905560D01*
X94645000Y-117905560D01*
X94411000Y-117949590D01*
X94411000Y-111629434D01*
X94711050Y-111629434D01*
X94887417Y-112516092D01*
X95389669Y-113267765D01*
X96141342Y-113770017D01*
X97028000Y-113946384D01*
X97914658Y-113770017D01*
X98666331Y-113267765D01*
X99168583Y-112516092D01*
X99344950Y-111629434D01*
X99168583Y-110742776D01*
X98666331Y-109991103D01*
X97914658Y-109488851D01*
X97028000Y-109312484D01*
X96141342Y-109488851D01*
X95389669Y-109991103D01*
X94887417Y-110742776D01*
X94711050Y-111629434D01*
X94411000Y-111629434D01*
X94411000Y-111569901D01*
X94612938Y-110554689D01*
X95149794Y-109751228D01*
X95953253Y-109214372D01*
X96968467Y-109012434D01*
X110857710Y-109012434D01*
X110757578Y-117023000D01*
X110757578Y-117023000D01*
G37*
X110757578Y-117023000D02*
X110521750Y-117023000D01*
X110363000Y-117181750D01*
X110363000Y-117856000D01*
X110383000Y-117856000D01*
X110383000Y-117960560D01*
X110089000Y-117960560D01*
X110089000Y-117856000D01*
X110109000Y-117856000D01*
X110109000Y-117181750D01*
X109950250Y-117023000D01*
X109579691Y-117023000D01*
X109346302Y-117119673D01*
X109167673Y-117298301D01*
X109100499Y-117460474D01*
X108938699Y-117298673D01*
X108705310Y-117202000D01*
X108489750Y-117202000D01*
X108331000Y-117360750D01*
X108331000Y-118110000D01*
X108351000Y-118110000D01*
X108351000Y-118364000D01*
X108331000Y-118364000D01*
X108331000Y-118384000D01*
X108077000Y-118384000D01*
X108077000Y-118364000D01*
X107352750Y-118364000D01*
X107194000Y-118522750D01*
X107194000Y-118763309D01*
X107290673Y-118996698D01*
X107292043Y-118998068D01*
X107232569Y-119085110D01*
X107181560Y-119337000D01*
X107181560Y-120137000D01*
X107225838Y-120372317D01*
X107364910Y-120588441D01*
X107577110Y-120733431D01*
X107829000Y-120784440D01*
X108151638Y-120784440D01*
X108437600Y-121070402D01*
X108684162Y-121235149D01*
X108975001Y-121293001D01*
X110704203Y-121293001D01*
X110628046Y-127385560D01*
X110175000Y-127385560D01*
X109939683Y-127429838D01*
X109723559Y-127568910D01*
X109686601Y-127623000D01*
X109505290Y-127623000D01*
X109517440Y-127563000D01*
X109517440Y-127063000D01*
X109473162Y-126827683D01*
X109334090Y-126611559D01*
X109265994Y-126565031D01*
X109408327Y-126422698D01*
X109505000Y-126189309D01*
X109505000Y-126096750D01*
X109346250Y-125938000D01*
X108547000Y-125938000D01*
X108547000Y-125960000D01*
X108293000Y-125960000D01*
X108293000Y-125938000D01*
X108273000Y-125938000D01*
X108273000Y-125688000D01*
X108293000Y-125688000D01*
X108293000Y-125086750D01*
X108547000Y-125086750D01*
X108547000Y-125688000D01*
X109346250Y-125688000D01*
X109505000Y-125529250D01*
X109505000Y-125436691D01*
X109408327Y-125203302D01*
X109229699Y-125024673D01*
X108996310Y-124928000D01*
X108705750Y-124928000D01*
X108547000Y-125086750D01*
X108293000Y-125086750D01*
X108134250Y-124928000D01*
X107843690Y-124928000D01*
X107610301Y-125024673D01*
X107431673Y-125203302D01*
X107370971Y-125349848D01*
X107365056Y-125318411D01*
X107389440Y-125198000D01*
X107389440Y-124648000D01*
X107345162Y-124412683D01*
X107206090Y-124196559D01*
X106993890Y-124051569D01*
X106742000Y-124000560D01*
X105414440Y-124000560D01*
X105414440Y-122673000D01*
X105370162Y-122437683D01*
X105231090Y-122221559D01*
X105018890Y-122076569D01*
X104767000Y-122025560D01*
X104217000Y-122025560D01*
X104087411Y-122049944D01*
X103985600Y-122029327D01*
X103985600Y-120223600D01*
X103943158Y-120010231D01*
X104017792Y-119935727D01*
X104160438Y-119592199D01*
X104160762Y-119220233D01*
X104018717Y-118876457D01*
X103755927Y-118613208D01*
X103412399Y-118470562D01*
X103140930Y-118470326D01*
X103076890Y-118426569D01*
X102825000Y-118375560D01*
X102075000Y-118375560D01*
X101839683Y-118419838D01*
X101660836Y-118534923D01*
X101650000Y-118527519D01*
X101650000Y-118312998D01*
X101592148Y-118022159D01*
X101427401Y-117775597D01*
X101362495Y-117710691D01*
X107194000Y-117710691D01*
X107194000Y-117951250D01*
X107352750Y-118110000D01*
X108077000Y-118110000D01*
X108077000Y-117360750D01*
X107918250Y-117202000D01*
X107702690Y-117202000D01*
X107469301Y-117298673D01*
X107290673Y-117477302D01*
X107194000Y-117710691D01*
X101362495Y-117710691D01*
X99529794Y-115877990D01*
X99283232Y-115713243D01*
X98992393Y-115655391D01*
X97782609Y-115655391D01*
X97491770Y-115713243D01*
X97245208Y-115877990D01*
X96732599Y-116390599D01*
X96590496Y-116603271D01*
X96418559Y-116713910D01*
X96273569Y-116926110D01*
X96222560Y-117178000D01*
X96222560Y-117525638D01*
X96072638Y-117675560D01*
X95820000Y-117675560D01*
X95584683Y-117719838D01*
X95368559Y-117858910D01*
X95336684Y-117905560D01*
X94645000Y-117905560D01*
X94411000Y-117949590D01*
X94411000Y-111629434D01*
X94711050Y-111629434D01*
X94887417Y-112516092D01*
X95389669Y-113267765D01*
X96141342Y-113770017D01*
X97028000Y-113946384D01*
X97914658Y-113770017D01*
X98666331Y-113267765D01*
X99168583Y-112516092D01*
X99344950Y-111629434D01*
X99168583Y-110742776D01*
X98666331Y-109991103D01*
X97914658Y-109488851D01*
X97028000Y-109312484D01*
X96141342Y-109488851D01*
X95389669Y-109991103D01*
X94887417Y-110742776D01*
X94711050Y-111629434D01*
X94411000Y-111629434D01*
X94411000Y-111569901D01*
X94612938Y-110554689D01*
X95149794Y-109751228D01*
X95953253Y-109214372D01*
X96968467Y-109012434D01*
X110857710Y-109012434D01*
X110757578Y-117023000D01*
G36*
X102465600Y-121070000D02*
X102401990Y-121070000D01*
X102401990Y-120776000D01*
X102465600Y-120776000D01*
X102465600Y-121070000D01*
X102465600Y-121070000D01*
G37*
X102465600Y-121070000D02*
X102401990Y-121070000D01*
X102401990Y-120776000D01*
X102465600Y-120776000D01*
X102465600Y-121070000D01*
G36*
X121760000Y-129926726D02*
X121760000Y-133551330D01*
X121628559Y-133635910D01*
X121483569Y-133848110D01*
X121432560Y-134100000D01*
X121432560Y-138303000D01*
X116603721Y-138303000D01*
X116490117Y-138028057D01*
X116227327Y-137764808D01*
X115883799Y-137622162D01*
X115511833Y-137621838D01*
X115168057Y-137763883D01*
X114904808Y-138026673D01*
X114790066Y-138303000D01*
X111887000Y-138303000D01*
X111887000Y-131043000D01*
X114166560Y-131043000D01*
X114166560Y-131083000D01*
X114203300Y-131278258D01*
X114203038Y-131579367D01*
X114345083Y-131923143D01*
X114607873Y-132186392D01*
X114951401Y-132329038D01*
X115323367Y-132329362D01*
X115667143Y-132187317D01*
X115917000Y-131937896D01*
X115917000Y-132142000D01*
X115974852Y-132432839D01*
X116139599Y-132679401D01*
X117377599Y-133917401D01*
X117590272Y-134059505D01*
X117700910Y-134231441D01*
X117913110Y-134376431D01*
X118165000Y-134427440D01*
X118915000Y-134427440D01*
X119150317Y-134383162D01*
X119366441Y-134244090D01*
X119511431Y-134031890D01*
X119562440Y-133780000D01*
X119562440Y-133532362D01*
X119957363Y-133137440D01*
X120305000Y-133137440D01*
X120540317Y-133093162D01*
X120756441Y-132954090D01*
X120901431Y-132741890D01*
X120952440Y-132490000D01*
X120952440Y-131690000D01*
X120908162Y-131454683D01*
X120841671Y-131351354D01*
X120843327Y-131349698D01*
X120940000Y-131116309D01*
X120940000Y-130875750D01*
X120781250Y-130717000D01*
X120057000Y-130717000D01*
X120057000Y-130737000D01*
X119803000Y-130737000D01*
X119803000Y-130717000D01*
X119783000Y-130717000D01*
X119783000Y-130463000D01*
X119803000Y-130463000D01*
X119803000Y-130443000D01*
X120057000Y-130443000D01*
X120057000Y-130463000D01*
X120781250Y-130463000D01*
X120940000Y-130304250D01*
X120940000Y-130127440D01*
X121275000Y-130127440D01*
X121510317Y-130083162D01*
X121726441Y-129944090D01*
X121745210Y-129916621D01*
X121760000Y-129926726D01*
X121760000Y-129926726D01*
G37*
X121760000Y-129926726D02*
X121760000Y-133551330D01*
X121628559Y-133635910D01*
X121483569Y-133848110D01*
X121432560Y-134100000D01*
X121432560Y-138303000D01*
X116603721Y-138303000D01*
X116490117Y-138028057D01*
X116227327Y-137764808D01*
X115883799Y-137622162D01*
X115511833Y-137621838D01*
X115168057Y-137763883D01*
X114904808Y-138026673D01*
X114790066Y-138303000D01*
X111887000Y-138303000D01*
X111887000Y-131043000D01*
X114166560Y-131043000D01*
X114166560Y-131083000D01*
X114203300Y-131278258D01*
X114203038Y-131579367D01*
X114345083Y-131923143D01*
X114607873Y-132186392D01*
X114951401Y-132329038D01*
X115323367Y-132329362D01*
X115667143Y-132187317D01*
X115917000Y-131937896D01*
X115917000Y-132142000D01*
X115974852Y-132432839D01*
X116139599Y-132679401D01*
X117377599Y-133917401D01*
X117590272Y-134059505D01*
X117700910Y-134231441D01*
X117913110Y-134376431D01*
X118165000Y-134427440D01*
X118915000Y-134427440D01*
X119150317Y-134383162D01*
X119366441Y-134244090D01*
X119511431Y-134031890D01*
X119562440Y-133780000D01*
X119562440Y-133532362D01*
X119957363Y-133137440D01*
X120305000Y-133137440D01*
X120540317Y-133093162D01*
X120756441Y-132954090D01*
X120901431Y-132741890D01*
X120952440Y-132490000D01*
X120952440Y-131690000D01*
X120908162Y-131454683D01*
X120841671Y-131351354D01*
X120843327Y-131349698D01*
X120940000Y-131116309D01*
X120940000Y-130875750D01*
X120781250Y-130717000D01*
X120057000Y-130717000D01*
X120057000Y-130737000D01*
X119803000Y-130737000D01*
X119803000Y-130717000D01*
X119783000Y-130717000D01*
X119783000Y-130463000D01*
X119803000Y-130463000D01*
X119803000Y-130443000D01*
X120057000Y-130443000D01*
X120057000Y-130463000D01*
X120781250Y-130463000D01*
X120940000Y-130304250D01*
X120940000Y-130127440D01*
X121275000Y-130127440D01*
X121510317Y-130083162D01*
X121726441Y-129944090D01*
X121745210Y-129916621D01*
X121760000Y-129926726D01*
G36*
X129598745Y-109214372D02*
X130402206Y-109751228D01*
X130939062Y-110554687D01*
X131141000Y-111569901D01*
X131141000Y-138303000D01*
X124027440Y-138303000D01*
X124027440Y-134100000D01*
X123983162Y-133864683D01*
X123844090Y-133648559D01*
X123631890Y-133503569D01*
X123380000Y-133452560D01*
X123280000Y-133452560D01*
X123280000Y-129925105D01*
X123421441Y-129834090D01*
X123566431Y-129621890D01*
X123617440Y-129370000D01*
X123617440Y-128870000D01*
X123573162Y-128634683D01*
X123434090Y-128418559D01*
X123408511Y-128401082D01*
X123628490Y-128492200D01*
X123844050Y-128492200D01*
X124002800Y-128333450D01*
X124002800Y-127584200D01*
X124256800Y-127584200D01*
X124256800Y-128333450D01*
X124415550Y-128492200D01*
X124631110Y-128492200D01*
X124864499Y-128395527D01*
X125043127Y-128216898D01*
X125139800Y-127983509D01*
X125139800Y-127742950D01*
X124981050Y-127584200D01*
X124256800Y-127584200D01*
X124002800Y-127584200D01*
X123982800Y-127584200D01*
X123982800Y-127330200D01*
X124002800Y-127330200D01*
X124002800Y-127310200D01*
X124256800Y-127310200D01*
X124256800Y-127330200D01*
X124981050Y-127330200D01*
X125127597Y-127183653D01*
X125250000Y-127208440D01*
X125750000Y-127208440D01*
X125985317Y-127164162D01*
X126201441Y-127025090D01*
X126247969Y-126956994D01*
X126390302Y-127099327D01*
X126623691Y-127196000D01*
X126716250Y-127196000D01*
X126875000Y-127037250D01*
X126875000Y-126238000D01*
X126853000Y-126238000D01*
X126853000Y-125984000D01*
X126875000Y-125984000D01*
X126875000Y-125964000D01*
X127125000Y-125964000D01*
X127125000Y-125984000D01*
X127726250Y-125984000D01*
X127853250Y-125857000D01*
X128143000Y-125857000D01*
X128143000Y-125837000D01*
X128210001Y-125837000D01*
X128210001Y-126131000D01*
X128143000Y-126131000D01*
X128143000Y-126111000D01*
X127418750Y-126111000D01*
X127291750Y-126238000D01*
X127125000Y-126238000D01*
X127125000Y-127037250D01*
X127247560Y-127159810D01*
X127247560Y-127884000D01*
X127291838Y-128119317D01*
X127430910Y-128335441D01*
X127537505Y-128408274D01*
X127567852Y-128560839D01*
X127588940Y-128592399D01*
X127588838Y-128709167D01*
X127730883Y-129052943D01*
X127993673Y-129316192D01*
X128337201Y-129458838D01*
X128709167Y-129459162D01*
X129052943Y-129317117D01*
X129316192Y-129054327D01*
X129458838Y-128710799D01*
X129459162Y-128338833D01*
X129317117Y-127995057D01*
X129277905Y-127955776D01*
X129292440Y-127884000D01*
X129292440Y-127511362D01*
X129507402Y-127296400D01*
X129672149Y-127049838D01*
X129730001Y-126758999D01*
X129730001Y-124180999D01*
X129672149Y-123890160D01*
X129507402Y-123643598D01*
X128135403Y-122271599D01*
X127888841Y-122106852D01*
X127598002Y-122049000D01*
X126739844Y-122049000D01*
X126697090Y-121982559D01*
X126484890Y-121837569D01*
X126233000Y-121786560D01*
X125433000Y-121786560D01*
X125197683Y-121830838D01*
X125083022Y-121904620D01*
X124984890Y-121837569D01*
X124733000Y-121786560D01*
X123933000Y-121786560D01*
X123697683Y-121830838D01*
X123670618Y-121848254D01*
X123660162Y-121792683D01*
X123586380Y-121678022D01*
X123653431Y-121579890D01*
X123704440Y-121328000D01*
X123704440Y-120528000D01*
X123660162Y-120292683D01*
X123521090Y-120076559D01*
X123308890Y-119931569D01*
X123057000Y-119880560D01*
X122307000Y-119880560D01*
X122071683Y-119924838D01*
X121950216Y-120003000D01*
X121285000Y-120003000D01*
X121285000Y-120023000D01*
X121031000Y-120023000D01*
X121031000Y-120003000D01*
X121011000Y-120003000D01*
X121011000Y-119749000D01*
X121031000Y-119749000D01*
X121031000Y-119729000D01*
X121285000Y-119729000D01*
X121285000Y-119749000D01*
X122009250Y-119749000D01*
X122168000Y-119590250D01*
X122168000Y-119349691D01*
X122140947Y-119284378D01*
X122448943Y-119157117D01*
X122712192Y-118894327D01*
X122854838Y-118550799D01*
X122855162Y-118178833D01*
X122713117Y-117835057D01*
X122450327Y-117571808D01*
X122106799Y-117429162D01*
X121857154Y-117428945D01*
X121784890Y-117379569D01*
X121533000Y-117328560D01*
X120783000Y-117328560D01*
X120547683Y-117372838D01*
X120385868Y-117476963D01*
X120260890Y-117391569D01*
X120009000Y-117340560D01*
X119259000Y-117340560D01*
X119023683Y-117384838D01*
X118945362Y-117435236D01*
X118863890Y-117379569D01*
X118612000Y-117328560D01*
X117862000Y-117328560D01*
X117674620Y-117363818D01*
X117436400Y-117125598D01*
X117189838Y-116960851D01*
X116898999Y-116902999D01*
X114490001Y-116902999D01*
X114199162Y-116960851D01*
X113952600Y-117125598D01*
X113889599Y-117188599D01*
X113728640Y-117429492D01*
X113600559Y-117511910D01*
X113595733Y-117518974D01*
X113504327Y-117298301D01*
X113325698Y-117119673D01*
X113092309Y-117023000D01*
X112721750Y-117023000D01*
X112563000Y-117181750D01*
X112563000Y-117856000D01*
X112583000Y-117856000D01*
X112583000Y-118110000D01*
X112563000Y-118110000D01*
X112563000Y-118130000D01*
X112309000Y-118130000D01*
X112309000Y-118110000D01*
X112289000Y-118110000D01*
X112289000Y-117856000D01*
X112309000Y-117856000D01*
X112309000Y-117181750D01*
X112150250Y-117023000D01*
X111887000Y-117023000D01*
X111887000Y-111629434D01*
X126207050Y-111629434D01*
X126383417Y-112516092D01*
X126885669Y-113267765D01*
X127637342Y-113770017D01*
X128524000Y-113946384D01*
X129410658Y-113770017D01*
X130162331Y-113267765D01*
X130664583Y-112516092D01*
X130840950Y-111629434D01*
X130664583Y-110742776D01*
X130162331Y-109991103D01*
X129410658Y-109488851D01*
X128524000Y-109312484D01*
X127637342Y-109488851D01*
X126885669Y-109991103D01*
X126383417Y-110742776D01*
X126207050Y-111629434D01*
X111887000Y-111629434D01*
X111887000Y-109012434D01*
X128583533Y-109012434D01*
X129598745Y-109214372D01*
X129598745Y-109214372D01*
G37*
X129598745Y-109214372D02*
X130402206Y-109751228D01*
X130939062Y-110554687D01*
X131141000Y-111569901D01*
X131141000Y-138303000D01*
X124027440Y-138303000D01*
X124027440Y-134100000D01*
X123983162Y-133864683D01*
X123844090Y-133648559D01*
X123631890Y-133503569D01*
X123380000Y-133452560D01*
X123280000Y-133452560D01*
X123280000Y-129925105D01*
X123421441Y-129834090D01*
X123566431Y-129621890D01*
X123617440Y-129370000D01*
X123617440Y-128870000D01*
X123573162Y-128634683D01*
X123434090Y-128418559D01*
X123408511Y-128401082D01*
X123628490Y-128492200D01*
X123844050Y-128492200D01*
X124002800Y-128333450D01*
X124002800Y-127584200D01*
X124256800Y-127584200D01*
X124256800Y-128333450D01*
X124415550Y-128492200D01*
X124631110Y-128492200D01*
X124864499Y-128395527D01*
X125043127Y-128216898D01*
X125139800Y-127983509D01*
X125139800Y-127742950D01*
X124981050Y-127584200D01*
X124256800Y-127584200D01*
X124002800Y-127584200D01*
X123982800Y-127584200D01*
X123982800Y-127330200D01*
X124002800Y-127330200D01*
X124002800Y-127310200D01*
X124256800Y-127310200D01*
X124256800Y-127330200D01*
X124981050Y-127330200D01*
X125127597Y-127183653D01*
X125250000Y-127208440D01*
X125750000Y-127208440D01*
X125985317Y-127164162D01*
X126201441Y-127025090D01*
X126247969Y-126956994D01*
X126390302Y-127099327D01*
X126623691Y-127196000D01*
X126716250Y-127196000D01*
X126875000Y-127037250D01*
X126875000Y-126238000D01*
X126853000Y-126238000D01*
X126853000Y-125984000D01*
X126875000Y-125984000D01*
X126875000Y-125964000D01*
X127125000Y-125964000D01*
X127125000Y-125984000D01*
X127726250Y-125984000D01*
X127853250Y-125857000D01*
X128143000Y-125857000D01*
X128143000Y-125837000D01*
X128210001Y-125837000D01*
X128210001Y-126131000D01*
X128143000Y-126131000D01*
X128143000Y-126111000D01*
X127418750Y-126111000D01*
X127291750Y-126238000D01*
X127125000Y-126238000D01*
X127125000Y-127037250D01*
X127247560Y-127159810D01*
X127247560Y-127884000D01*
X127291838Y-128119317D01*
X127430910Y-128335441D01*
X127537505Y-128408274D01*
X127567852Y-128560839D01*
X127588940Y-128592399D01*
X127588838Y-128709167D01*
X127730883Y-129052943D01*
X127993673Y-129316192D01*
X128337201Y-129458838D01*
X128709167Y-129459162D01*
X129052943Y-129317117D01*
X129316192Y-129054327D01*
X129458838Y-128710799D01*
X129459162Y-128338833D01*
X129317117Y-127995057D01*
X129277905Y-127955776D01*
X129292440Y-127884000D01*
X129292440Y-127511362D01*
X129507402Y-127296400D01*
X129672149Y-127049838D01*
X129730001Y-126758999D01*
X129730001Y-124180999D01*
X129672149Y-123890160D01*
X129507402Y-123643598D01*
X128135403Y-122271599D01*
X127888841Y-122106852D01*
X127598002Y-122049000D01*
X126739844Y-122049000D01*
X126697090Y-121982559D01*
X126484890Y-121837569D01*
X126233000Y-121786560D01*
X125433000Y-121786560D01*
X125197683Y-121830838D01*
X125083022Y-121904620D01*
X124984890Y-121837569D01*
X124733000Y-121786560D01*
X123933000Y-121786560D01*
X123697683Y-121830838D01*
X123670618Y-121848254D01*
X123660162Y-121792683D01*
X123586380Y-121678022D01*
X123653431Y-121579890D01*
X123704440Y-121328000D01*
X123704440Y-120528000D01*
X123660162Y-120292683D01*
X123521090Y-120076559D01*
X123308890Y-119931569D01*
X123057000Y-119880560D01*
X122307000Y-119880560D01*
X122071683Y-119924838D01*
X121950216Y-120003000D01*
X121285000Y-120003000D01*
X121285000Y-120023000D01*
X121031000Y-120023000D01*
X121031000Y-120003000D01*
X121011000Y-120003000D01*
X121011000Y-119749000D01*
X121031000Y-119749000D01*
X121031000Y-119729000D01*
X121285000Y-119729000D01*
X121285000Y-119749000D01*
X122009250Y-119749000D01*
X122168000Y-119590250D01*
X122168000Y-119349691D01*
X122140947Y-119284378D01*
X122448943Y-119157117D01*
X122712192Y-118894327D01*
X122854838Y-118550799D01*
X122855162Y-118178833D01*
X122713117Y-117835057D01*
X122450327Y-117571808D01*
X122106799Y-117429162D01*
X121857154Y-117428945D01*
X121784890Y-117379569D01*
X121533000Y-117328560D01*
X120783000Y-117328560D01*
X120547683Y-117372838D01*
X120385868Y-117476963D01*
X120260890Y-117391569D01*
X120009000Y-117340560D01*
X119259000Y-117340560D01*
X119023683Y-117384838D01*
X118945362Y-117435236D01*
X118863890Y-117379569D01*
X118612000Y-117328560D01*
X117862000Y-117328560D01*
X117674620Y-117363818D01*
X117436400Y-117125598D01*
X117189838Y-116960851D01*
X116898999Y-116902999D01*
X114490001Y-116902999D01*
X114199162Y-116960851D01*
X113952600Y-117125598D01*
X113889599Y-117188599D01*
X113728640Y-117429492D01*
X113600559Y-117511910D01*
X113595733Y-117518974D01*
X113504327Y-117298301D01*
X113325698Y-117119673D01*
X113092309Y-117023000D01*
X112721750Y-117023000D01*
X112563000Y-117181750D01*
X112563000Y-117856000D01*
X112583000Y-117856000D01*
X112583000Y-118110000D01*
X112563000Y-118110000D01*
X112563000Y-118130000D01*
X112309000Y-118130000D01*
X112309000Y-118110000D01*
X112289000Y-118110000D01*
X112289000Y-117856000D01*
X112309000Y-117856000D01*
X112309000Y-117181750D01*
X112150250Y-117023000D01*
X111887000Y-117023000D01*
X111887000Y-111629434D01*
X126207050Y-111629434D01*
X126383417Y-112516092D01*
X126885669Y-113267765D01*
X127637342Y-113770017D01*
X128524000Y-113946384D01*
X129410658Y-113770017D01*
X130162331Y-113267765D01*
X130664583Y-112516092D01*
X130840950Y-111629434D01*
X130664583Y-110742776D01*
X130162331Y-109991103D01*
X129410658Y-109488851D01*
X128524000Y-109312484D01*
X127637342Y-109488851D01*
X126885669Y-109991103D01*
X126383417Y-110742776D01*
X126207050Y-111629434D01*
X111887000Y-111629434D01*
X111887000Y-109012434D01*
X128583533Y-109012434D01*
X129598745Y-109214372D01*
G36*
X115316000Y-124865000D02*
X115336000Y-124865000D01*
X115336000Y-125004916D01*
X115201682Y-125139000D01*
X115062000Y-125139000D01*
X115062000Y-125119000D01*
X115042000Y-125119000D01*
X115042000Y-124865000D01*
X115062000Y-124865000D01*
X115062000Y-124845000D01*
X115316000Y-124845000D01*
X115316000Y-124865000D01*
X115316000Y-124865000D01*
G37*
X115316000Y-124865000D02*
X115336000Y-124865000D01*
X115336000Y-125004916D01*
X115201682Y-125139000D01*
X115062000Y-125139000D01*
X115062000Y-125119000D01*
X115042000Y-125119000D01*
X115042000Y-124865000D01*
X115062000Y-124865000D01*
X115062000Y-124845000D01*
X115316000Y-124845000D01*
X115316000Y-124865000D01*
G36*
X128016000Y-124333000D02*
X128036000Y-124333000D01*
X128036000Y-124587000D01*
X128016000Y-124587000D01*
X128016000Y-124607000D01*
X127762000Y-124607000D01*
X127762000Y-124587000D01*
X127742000Y-124587000D01*
X127742000Y-124333000D01*
X127762000Y-124333000D01*
X127762000Y-124313000D01*
X128016000Y-124313000D01*
X128016000Y-124333000D01*
X128016000Y-124333000D01*
G37*
X128016000Y-124333000D02*
X128036000Y-124333000D01*
X128036000Y-124587000D01*
X128016000Y-124587000D01*
X128016000Y-124607000D01*
X127762000Y-124607000D01*
X127762000Y-124587000D01*
X127742000Y-124587000D01*
X127742000Y-124333000D01*
X127762000Y-124333000D01*
X127762000Y-124313000D01*
X128016000Y-124313000D01*
X128016000Y-124333000D01*
G36*
X118643039Y-140118622D02*
X118530000Y-140686907D01*
X118530000Y-140745093D01*
X118643039Y-141313378D01*
X118964946Y-141795147D01*
X119446715Y-142117054D01*
X120015000Y-142230093D01*
X120583285Y-142117054D01*
X121065054Y-141795147D01*
X121285000Y-141465974D01*
X121504946Y-141795147D01*
X121986715Y-142117054D01*
X122555000Y-142230093D01*
X123123285Y-142117054D01*
X123605054Y-141795147D01*
X123634403Y-141751223D01*
X123706673Y-141925698D01*
X123885301Y-142104327D01*
X124118690Y-142201000D01*
X124809250Y-142201000D01*
X124968000Y-142042250D01*
X124968000Y-140843000D01*
X125222000Y-140843000D01*
X125222000Y-142042250D01*
X125380750Y-142201000D01*
X126071310Y-142201000D01*
X126304699Y-142104327D01*
X126483327Y-141925698D01*
X126580000Y-141692309D01*
X126580000Y-141001750D01*
X126421250Y-140843000D01*
X125222000Y-140843000D01*
X124968000Y-140843000D01*
X124948000Y-140843000D01*
X124948000Y-140589000D01*
X124968000Y-140589000D01*
X124968000Y-140569000D01*
X125222000Y-140569000D01*
X125222000Y-140589000D01*
X126421250Y-140589000D01*
X126580000Y-140430250D01*
X126580000Y-139827000D01*
X131141000Y-139827000D01*
X131141000Y-143184967D01*
X130939062Y-144200181D01*
X130402206Y-145003640D01*
X129598745Y-145540496D01*
X128583533Y-145742434D01*
X111887000Y-145742434D01*
X111887000Y-143125434D01*
X126207050Y-143125434D01*
X126383417Y-144012092D01*
X126885669Y-144763765D01*
X127637342Y-145266017D01*
X128524000Y-145442384D01*
X129410658Y-145266017D01*
X130162331Y-144763765D01*
X130664583Y-144012092D01*
X130840950Y-143125434D01*
X130664583Y-142238776D01*
X130162331Y-141487103D01*
X129410658Y-140984851D01*
X128524000Y-140808484D01*
X127637342Y-140984851D01*
X126885669Y-141487103D01*
X126383417Y-142238776D01*
X126207050Y-143125434D01*
X111887000Y-143125434D01*
X111887000Y-141338974D01*
X111894702Y-141327447D01*
X111961817Y-141470358D01*
X112390076Y-141860645D01*
X112800110Y-142030476D01*
X113030000Y-141909155D01*
X113030000Y-140716000D01*
X113010000Y-140716000D01*
X113010000Y-140462000D01*
X113030000Y-140462000D01*
X113030000Y-140442000D01*
X113284000Y-140442000D01*
X113284000Y-140462000D01*
X113304000Y-140462000D01*
X113304000Y-140716000D01*
X113284000Y-140716000D01*
X113284000Y-141909155D01*
X113513890Y-142030476D01*
X113923924Y-141860645D01*
X114226937Y-141584499D01*
X114243838Y-141674317D01*
X114382910Y-141890441D01*
X114595110Y-142035431D01*
X114847000Y-142086440D01*
X116547000Y-142086440D01*
X116782317Y-142042162D01*
X116998441Y-141903090D01*
X117143431Y-141690890D01*
X117194440Y-141439000D01*
X117194440Y-139827000D01*
X118837894Y-139827000D01*
X118643039Y-140118622D01*
X118643039Y-140118622D01*
G37*
X118643039Y-140118622D02*
X118530000Y-140686907D01*
X118530000Y-140745093D01*
X118643039Y-141313378D01*
X118964946Y-141795147D01*
X119446715Y-142117054D01*
X120015000Y-142230093D01*
X120583285Y-142117054D01*
X121065054Y-141795147D01*
X121285000Y-141465974D01*
X121504946Y-141795147D01*
X121986715Y-142117054D01*
X122555000Y-142230093D01*
X123123285Y-142117054D01*
X123605054Y-141795147D01*
X123634403Y-141751223D01*
X123706673Y-141925698D01*
X123885301Y-142104327D01*
X124118690Y-142201000D01*
X124809250Y-142201000D01*
X124968000Y-142042250D01*
X124968000Y-140843000D01*
X125222000Y-140843000D01*
X125222000Y-142042250D01*
X125380750Y-142201000D01*
X126071310Y-142201000D01*
X126304699Y-142104327D01*
X126483327Y-141925698D01*
X126580000Y-141692309D01*
X126580000Y-141001750D01*
X126421250Y-140843000D01*
X125222000Y-140843000D01*
X124968000Y-140843000D01*
X124948000Y-140843000D01*
X124948000Y-140589000D01*
X124968000Y-140589000D01*
X124968000Y-140569000D01*
X125222000Y-140569000D01*
X125222000Y-140589000D01*
X126421250Y-140589000D01*
X126580000Y-140430250D01*
X126580000Y-139827000D01*
X131141000Y-139827000D01*
X131141000Y-143184967D01*
X130939062Y-144200181D01*
X130402206Y-145003640D01*
X129598745Y-145540496D01*
X128583533Y-145742434D01*
X111887000Y-145742434D01*
X111887000Y-143125434D01*
X126207050Y-143125434D01*
X126383417Y-144012092D01*
X126885669Y-144763765D01*
X127637342Y-145266017D01*
X128524000Y-145442384D01*
X129410658Y-145266017D01*
X130162331Y-144763765D01*
X130664583Y-144012092D01*
X130840950Y-143125434D01*
X130664583Y-142238776D01*
X130162331Y-141487103D01*
X129410658Y-140984851D01*
X128524000Y-140808484D01*
X127637342Y-140984851D01*
X126885669Y-141487103D01*
X126383417Y-142238776D01*
X126207050Y-143125434D01*
X111887000Y-143125434D01*
X111887000Y-141338974D01*
X111894702Y-141327447D01*
X111961817Y-141470358D01*
X112390076Y-141860645D01*
X112800110Y-142030476D01*
X113030000Y-141909155D01*
X113030000Y-140716000D01*
X113010000Y-140716000D01*
X113010000Y-140462000D01*
X113030000Y-140462000D01*
X113030000Y-140442000D01*
X113284000Y-140442000D01*
X113284000Y-140462000D01*
X113304000Y-140462000D01*
X113304000Y-140716000D01*
X113284000Y-140716000D01*
X113284000Y-141909155D01*
X113513890Y-142030476D01*
X113923924Y-141860645D01*
X114226937Y-141584499D01*
X114243838Y-141674317D01*
X114382910Y-141890441D01*
X114595110Y-142035431D01*
X114847000Y-142086440D01*
X116547000Y-142086440D01*
X116782317Y-142042162D01*
X116998441Y-141903090D01*
X117143431Y-141690890D01*
X117194440Y-141439000D01*
X117194440Y-139827000D01*
X118837894Y-139827000D01*
X118643039Y-140118622D01*
G36*
X113284000Y-103169000D02*
X94488000Y-103169000D01*
X94488000Y-98918096D01*
X96785932Y-98918096D01*
X96785932Y-99208656D01*
X96882605Y-99442045D01*
X97061234Y-99620673D01*
X97294623Y-99717346D01*
X97387182Y-99717346D01*
X97545932Y-99558596D01*
X97545932Y-98759346D01*
X96944682Y-98759346D01*
X96785932Y-98918096D01*
X94488000Y-98918096D01*
X94488000Y-96809722D01*
X94695737Y-96498822D01*
X94824000Y-95854000D01*
X94695737Y-95209178D01*
X94594286Y-95057346D01*
X96775492Y-95057346D01*
X96775492Y-95857346D01*
X96819770Y-96092663D01*
X96886261Y-96195992D01*
X96884605Y-96197648D01*
X96787932Y-96431037D01*
X96787932Y-96671596D01*
X96946682Y-96830346D01*
X97670932Y-96830346D01*
X97670932Y-96810346D01*
X97924932Y-96810346D01*
X97924932Y-96830346D01*
X97944932Y-96830346D01*
X97944932Y-97084346D01*
X97924932Y-97084346D01*
X97924932Y-97104346D01*
X97670932Y-97104346D01*
X97670932Y-97084346D01*
X96946682Y-97084346D01*
X96787932Y-97243096D01*
X96787932Y-97483655D01*
X96884605Y-97717044D01*
X96936407Y-97768846D01*
X96882605Y-97822647D01*
X96785932Y-98056036D01*
X96785932Y-98346596D01*
X96944682Y-98505346D01*
X97545932Y-98505346D01*
X97545932Y-97958596D01*
X97670930Y-97833598D01*
X97670930Y-97992346D01*
X97795932Y-97992346D01*
X97795932Y-98505346D01*
X97817932Y-98505346D01*
X97817932Y-98759346D01*
X97795932Y-98759346D01*
X97795932Y-99558596D01*
X97954682Y-99717346D01*
X98047241Y-99717346D01*
X98280630Y-99620673D01*
X98421868Y-99479436D01*
X98456842Y-99533787D01*
X98669042Y-99678777D01*
X98920932Y-99729786D01*
X99420932Y-99729786D01*
X99656249Y-99685508D01*
X99872373Y-99546436D01*
X99977658Y-99392346D01*
X100025492Y-99392346D01*
X100025492Y-99600346D01*
X100069770Y-99835663D01*
X100208842Y-100051787D01*
X100421042Y-100196777D01*
X100672932Y-100247786D01*
X101272932Y-100247786D01*
X101482932Y-100208272D01*
X101482932Y-100537346D01*
X101540784Y-100828185D01*
X101705531Y-101074747D01*
X101952093Y-101239494D01*
X102242932Y-101297346D01*
X103847822Y-101297346D01*
X103847770Y-101357513D01*
X103989815Y-101701289D01*
X104252605Y-101964538D01*
X104596133Y-102107184D01*
X104968099Y-102107508D01*
X105311875Y-101965463D01*
X105575124Y-101702673D01*
X105717770Y-101359145D01*
X105718094Y-100987179D01*
X105576049Y-100643403D01*
X105542932Y-100610228D01*
X105542932Y-100051909D01*
X105679363Y-99852236D01*
X105730372Y-99600346D01*
X105730372Y-99560593D01*
X105896771Y-99527494D01*
X106143333Y-99362747D01*
X106748734Y-98757346D01*
X106811978Y-98757346D01*
X107005785Y-99047400D01*
X107487554Y-99369307D01*
X108055839Y-99482346D01*
X108114025Y-99482346D01*
X108682310Y-99369307D01*
X109164079Y-99047400D01*
X109485986Y-98565631D01*
X109599025Y-97997346D01*
X109485986Y-97429061D01*
X109164079Y-96947292D01*
X108834906Y-96727346D01*
X109164079Y-96507400D01*
X109485986Y-96025631D01*
X109599025Y-95457346D01*
X109485986Y-94889061D01*
X109164079Y-94407292D01*
X109120155Y-94377943D01*
X109294630Y-94305673D01*
X109473259Y-94127045D01*
X109569932Y-93893656D01*
X109569932Y-93203096D01*
X109411182Y-93044346D01*
X108211932Y-93044346D01*
X108211932Y-93064346D01*
X107957932Y-93064346D01*
X107957932Y-93044346D01*
X107937932Y-93044346D01*
X107937932Y-92790346D01*
X107957932Y-92790346D01*
X107957932Y-91591096D01*
X108211932Y-91591096D01*
X108211932Y-92790346D01*
X109411182Y-92790346D01*
X109569932Y-92631596D01*
X109569932Y-91941036D01*
X109473259Y-91707647D01*
X109294630Y-91529019D01*
X109061241Y-91432346D01*
X108370682Y-91432346D01*
X108211932Y-91591096D01*
X107957932Y-91591096D01*
X107799182Y-91432346D01*
X107108623Y-91432346D01*
X107016433Y-91470532D01*
X107016433Y-90317347D01*
X106985370Y-90161184D01*
X106958581Y-90026507D01*
X106793834Y-89779946D01*
X106578872Y-89564984D01*
X106578872Y-89492346D01*
X106534594Y-89257029D01*
X106395522Y-89040905D01*
X106183322Y-88895915D01*
X105931432Y-88844906D01*
X105031432Y-88844906D01*
X104796115Y-88889184D01*
X104726039Y-88934277D01*
X104672822Y-88897915D01*
X104420932Y-88846906D01*
X103620932Y-88846906D01*
X103385615Y-88891184D01*
X103270954Y-88964966D01*
X103172822Y-88897915D01*
X102920932Y-88846906D01*
X102120932Y-88846906D01*
X101885615Y-88891184D01*
X101752203Y-88977032D01*
X101599822Y-88872915D01*
X101347932Y-88821906D01*
X100597932Y-88821906D01*
X100362615Y-88866184D01*
X100146491Y-89005256D01*
X100017988Y-89193327D01*
X99810531Y-89331945D01*
X99735530Y-89406946D01*
X99570783Y-89653508D01*
X99512931Y-89944347D01*
X99512931Y-92250345D01*
X99570783Y-92541184D01*
X99735530Y-92787746D01*
X99860630Y-92912846D01*
X98530531Y-94242945D01*
X98389648Y-94453792D01*
X98172932Y-94409906D01*
X97422932Y-94409906D01*
X97187615Y-94454184D01*
X96971491Y-94593256D01*
X96826501Y-94805456D01*
X96775492Y-95057346D01*
X94594286Y-95057346D01*
X94488000Y-94898278D01*
X94488000Y-91573736D01*
X97522736Y-88539000D01*
X113284000Y-88539000D01*
X113284000Y-103169000D01*
X113284000Y-103169000D01*
G37*
X113284000Y-103169000D02*
X94488000Y-103169000D01*
X94488000Y-98918096D01*
X96785932Y-98918096D01*
X96785932Y-99208656D01*
X96882605Y-99442045D01*
X97061234Y-99620673D01*
X97294623Y-99717346D01*
X97387182Y-99717346D01*
X97545932Y-99558596D01*
X97545932Y-98759346D01*
X96944682Y-98759346D01*
X96785932Y-98918096D01*
X94488000Y-98918096D01*
X94488000Y-96809722D01*
X94695737Y-96498822D01*
X94824000Y-95854000D01*
X94695737Y-95209178D01*
X94594286Y-95057346D01*
X96775492Y-95057346D01*
X96775492Y-95857346D01*
X96819770Y-96092663D01*
X96886261Y-96195992D01*
X96884605Y-96197648D01*
X96787932Y-96431037D01*
X96787932Y-96671596D01*
X96946682Y-96830346D01*
X97670932Y-96830346D01*
X97670932Y-96810346D01*
X97924932Y-96810346D01*
X97924932Y-96830346D01*
X97944932Y-96830346D01*
X97944932Y-97084346D01*
X97924932Y-97084346D01*
X97924932Y-97104346D01*
X97670932Y-97104346D01*
X97670932Y-97084346D01*
X96946682Y-97084346D01*
X96787932Y-97243096D01*
X96787932Y-97483655D01*
X96884605Y-97717044D01*
X96936407Y-97768846D01*
X96882605Y-97822647D01*
X96785932Y-98056036D01*
X96785932Y-98346596D01*
X96944682Y-98505346D01*
X97545932Y-98505346D01*
X97545932Y-97958596D01*
X97670930Y-97833598D01*
X97670930Y-97992346D01*
X97795932Y-97992346D01*
X97795932Y-98505346D01*
X97817932Y-98505346D01*
X97817932Y-98759346D01*
X97795932Y-98759346D01*
X97795932Y-99558596D01*
X97954682Y-99717346D01*
X98047241Y-99717346D01*
X98280630Y-99620673D01*
X98421868Y-99479436D01*
X98456842Y-99533787D01*
X98669042Y-99678777D01*
X98920932Y-99729786D01*
X99420932Y-99729786D01*
X99656249Y-99685508D01*
X99872373Y-99546436D01*
X99977658Y-99392346D01*
X100025492Y-99392346D01*
X100025492Y-99600346D01*
X100069770Y-99835663D01*
X100208842Y-100051787D01*
X100421042Y-100196777D01*
X100672932Y-100247786D01*
X101272932Y-100247786D01*
X101482932Y-100208272D01*
X101482932Y-100537346D01*
X101540784Y-100828185D01*
X101705531Y-101074747D01*
X101952093Y-101239494D01*
X102242932Y-101297346D01*
X103847822Y-101297346D01*
X103847770Y-101357513D01*
X103989815Y-101701289D01*
X104252605Y-101964538D01*
X104596133Y-102107184D01*
X104968099Y-102107508D01*
X105311875Y-101965463D01*
X105575124Y-101702673D01*
X105717770Y-101359145D01*
X105718094Y-100987179D01*
X105576049Y-100643403D01*
X105542932Y-100610228D01*
X105542932Y-100051909D01*
X105679363Y-99852236D01*
X105730372Y-99600346D01*
X105730372Y-99560593D01*
X105896771Y-99527494D01*
X106143333Y-99362747D01*
X106748734Y-98757346D01*
X106811978Y-98757346D01*
X107005785Y-99047400D01*
X107487554Y-99369307D01*
X108055839Y-99482346D01*
X108114025Y-99482346D01*
X108682310Y-99369307D01*
X109164079Y-99047400D01*
X109485986Y-98565631D01*
X109599025Y-97997346D01*
X109485986Y-97429061D01*
X109164079Y-96947292D01*
X108834906Y-96727346D01*
X109164079Y-96507400D01*
X109485986Y-96025631D01*
X109599025Y-95457346D01*
X109485986Y-94889061D01*
X109164079Y-94407292D01*
X109120155Y-94377943D01*
X109294630Y-94305673D01*
X109473259Y-94127045D01*
X109569932Y-93893656D01*
X109569932Y-93203096D01*
X109411182Y-93044346D01*
X108211932Y-93044346D01*
X108211932Y-93064346D01*
X107957932Y-93064346D01*
X107957932Y-93044346D01*
X107937932Y-93044346D01*
X107937932Y-92790346D01*
X107957932Y-92790346D01*
X107957932Y-91591096D01*
X108211932Y-91591096D01*
X108211932Y-92790346D01*
X109411182Y-92790346D01*
X109569932Y-92631596D01*
X109569932Y-91941036D01*
X109473259Y-91707647D01*
X109294630Y-91529019D01*
X109061241Y-91432346D01*
X108370682Y-91432346D01*
X108211932Y-91591096D01*
X107957932Y-91591096D01*
X107799182Y-91432346D01*
X107108623Y-91432346D01*
X107016433Y-91470532D01*
X107016433Y-90317347D01*
X106985370Y-90161184D01*
X106958581Y-90026507D01*
X106793834Y-89779946D01*
X106578872Y-89564984D01*
X106578872Y-89492346D01*
X106534594Y-89257029D01*
X106395522Y-89040905D01*
X106183322Y-88895915D01*
X105931432Y-88844906D01*
X105031432Y-88844906D01*
X104796115Y-88889184D01*
X104726039Y-88934277D01*
X104672822Y-88897915D01*
X104420932Y-88846906D01*
X103620932Y-88846906D01*
X103385615Y-88891184D01*
X103270954Y-88964966D01*
X103172822Y-88897915D01*
X102920932Y-88846906D01*
X102120932Y-88846906D01*
X101885615Y-88891184D01*
X101752203Y-88977032D01*
X101599822Y-88872915D01*
X101347932Y-88821906D01*
X100597932Y-88821906D01*
X100362615Y-88866184D01*
X100146491Y-89005256D01*
X100017988Y-89193327D01*
X99810531Y-89331945D01*
X99735530Y-89406946D01*
X99570783Y-89653508D01*
X99512931Y-89944347D01*
X99512931Y-92250345D01*
X99570783Y-92541184D01*
X99735530Y-92787746D01*
X99860630Y-92912846D01*
X98530531Y-94242945D01*
X98389648Y-94453792D01*
X98172932Y-94409906D01*
X97422932Y-94409906D01*
X97187615Y-94454184D01*
X96971491Y-94593256D01*
X96826501Y-94805456D01*
X96775492Y-95057346D01*
X94594286Y-95057346D01*
X94488000Y-94898278D01*
X94488000Y-91573736D01*
X97522736Y-88539000D01*
X113284000Y-88539000D01*
X113284000Y-103169000D01*
M02*
