G04 #@! TF.FileFunction,Legend,Top*
%FSLAX46Y46*%
G04 Gerber Fmt 4.6, Leading zero omitted, Abs format (unit mm)*
G04 Created by KiCad (PCBNEW 4.0.7) date 04/10/18 23:53:23*
%MOMM*%
%LPD*%
G01*
G04 APERTURE LIST*
%ADD10C,0.100000*%
%ADD11C,0.150000*%
G04 APERTURE END LIST*
D10*
D11*
X109940000Y-76420000D02*
X151940000Y-76420000D01*
X151940000Y-76420000D02*
X151940000Y-88420000D01*
X151940000Y-88420000D02*
X109940000Y-88420000D01*
X109940000Y-88420000D02*
X109940000Y-76420000D01*
X103710000Y-106600000D02*
X145710000Y-106600000D01*
X145710000Y-106600000D02*
X145710000Y-120100000D01*
X145710000Y-120100000D02*
X103710000Y-120100000D01*
X103710000Y-120100000D02*
X103710000Y-106600000D01*
X130606667Y-96372381D02*
X130273333Y-95896190D01*
X130035238Y-96372381D02*
X130035238Y-95372381D01*
X130416191Y-95372381D01*
X130511429Y-95420000D01*
X130559048Y-95467619D01*
X130606667Y-95562857D01*
X130606667Y-95705714D01*
X130559048Y-95800952D01*
X130511429Y-95848571D01*
X130416191Y-95896190D01*
X130035238Y-95896190D01*
X131035238Y-95848571D02*
X131368572Y-95848571D01*
X131511429Y-96372381D02*
X131035238Y-96372381D01*
X131035238Y-95372381D01*
X131511429Y-95372381D01*
X132273334Y-95848571D02*
X131940000Y-95848571D01*
X131940000Y-96372381D02*
X131940000Y-95372381D01*
X132416191Y-95372381D01*
X132940000Y-95372381D02*
X132940000Y-95610476D01*
X132701905Y-95515238D02*
X132940000Y-95610476D01*
X133178096Y-95515238D01*
X132797143Y-95800952D02*
X132940000Y-95610476D01*
X133082858Y-95800952D01*
X133701905Y-95372381D02*
X133701905Y-95610476D01*
X133463810Y-95515238D02*
X133701905Y-95610476D01*
X133940001Y-95515238D01*
X133559048Y-95800952D02*
X133701905Y-95610476D01*
X133844763Y-95800952D01*
X124376667Y-127302381D02*
X124043333Y-126826190D01*
X123805238Y-127302381D02*
X123805238Y-126302381D01*
X124186191Y-126302381D01*
X124281429Y-126350000D01*
X124329048Y-126397619D01*
X124376667Y-126492857D01*
X124376667Y-126635714D01*
X124329048Y-126730952D01*
X124281429Y-126778571D01*
X124186191Y-126826190D01*
X123805238Y-126826190D01*
X124805238Y-126778571D02*
X125138572Y-126778571D01*
X125281429Y-127302381D02*
X124805238Y-127302381D01*
X124805238Y-126302381D01*
X125281429Y-126302381D01*
X126043334Y-126778571D02*
X125710000Y-126778571D01*
X125710000Y-127302381D02*
X125710000Y-126302381D01*
X126186191Y-126302381D01*
X126710000Y-126302381D02*
X126710000Y-126540476D01*
X126471905Y-126445238D02*
X126710000Y-126540476D01*
X126948096Y-126445238D01*
X126567143Y-126730952D02*
X126710000Y-126540476D01*
X126852858Y-126730952D01*
X127471905Y-126302381D02*
X127471905Y-126540476D01*
X127233810Y-126445238D02*
X127471905Y-126540476D01*
X127710001Y-126445238D01*
X127329048Y-126730952D02*
X127471905Y-126540476D01*
X127614763Y-126730952D01*
M02*
