G04 #@! TF.FileFunction,Copper,L2,Bot,Signal*
%FSLAX46Y46*%
G04 Gerber Fmt 4.6, Leading zero omitted, Abs format (unit mm)*
G04 Created by KiCad (PCBNEW 4.0.7) date 04/10/18 23:53:23*
%MOMM*%
%LPD*%
G01*
G04 APERTURE LIST*
%ADD10C,0.100000*%
%ADD11C,2.489200*%
%ADD12C,2.032000*%
G04 APERTURE END LIST*
D10*
D11*
X113795000Y-84629800D03*
D12*
X139195000Y-78610000D03*
X141735000Y-78610000D03*
X139195000Y-81150000D03*
X141735000Y-81150000D03*
X139195000Y-83690000D03*
X141735000Y-83690000D03*
X139195000Y-86230000D03*
X141735000Y-86230000D03*
X135385000Y-86230000D03*
X132845000Y-86230000D03*
X135385000Y-83690000D03*
X132845000Y-83690000D03*
X135385000Y-81150000D03*
X132845000Y-81150000D03*
X135385000Y-78610000D03*
X132845000Y-78610000D03*
X126495000Y-78610000D03*
X129035000Y-78610000D03*
X126495000Y-81150000D03*
X129035000Y-81150000D03*
X126495000Y-83690000D03*
X129035000Y-83690000D03*
X126495000Y-86230000D03*
X129035000Y-86230000D03*
X122685000Y-86230000D03*
X120145000Y-86230000D03*
X122685000Y-83690000D03*
X120145000Y-83690000D03*
X122685000Y-81150000D03*
X120145000Y-81150000D03*
X122685000Y-78610000D03*
X120145000Y-78610000D03*
D11*
X148085000Y-84629800D03*
X107565000Y-115559800D03*
D12*
X132965000Y-109540000D03*
X135505000Y-109540000D03*
X132965000Y-112080000D03*
X135505000Y-112080000D03*
X132965000Y-114620000D03*
X135505000Y-114620000D03*
X132965000Y-117160000D03*
X135505000Y-117160000D03*
X129155000Y-117160000D03*
X126615000Y-117160000D03*
X129155000Y-114620000D03*
X126615000Y-114620000D03*
X129155000Y-112080000D03*
X126615000Y-112080000D03*
X129155000Y-109540000D03*
X126615000Y-109540000D03*
X120265000Y-109540000D03*
X122805000Y-109540000D03*
X120265000Y-112080000D03*
X122805000Y-112080000D03*
X120265000Y-114620000D03*
X122805000Y-114620000D03*
X120265000Y-117160000D03*
X122805000Y-117160000D03*
X116455000Y-117160000D03*
X113915000Y-117160000D03*
X116455000Y-114620000D03*
X113915000Y-114620000D03*
X116455000Y-112080000D03*
X113915000Y-112080000D03*
X116455000Y-109540000D03*
X113915000Y-109540000D03*
D11*
X141855000Y-115559800D03*
M02*
